  0
SECTION
  2
HEADER
  9
$ACADVER
  1
AC1015
  9
$ACADMAINTVER
 70
     6
  9
$DWGCODEPAGE
  3
ANSI_1252
  9
$INSBASE
 10
0.0
 20
0.0
 30
0.0
  9
$EXTMIN
 10
-225.0261450108
 20
-162.2566765425
 30
0.0
  9
$EXTMAX
 10
59.6854051749
 20
153.2563645721
 30
0.0
  9
$LIMMIN
 10
0.0
 20
0.0
  9
$LIMMAX
 10
420.0
 20
297.0
  9
$ORTHOMODE
 70
     0
  9
$REGENMODE
 70
     1
  9
$FILLMODE
 70
     1
  9
$QTEXTMODE
 70
     0
  9
$MIRRTEXT
 70
     1
  9
$LTSCALE
 40
1.0
  9
$ATTMODE
 70
     1
  9
$TEXTSIZE
 40
3.5
  9
$TRACEWID
 40
1.0
  9
$TEXTSTYLE
  7
Standard
  9
$CLAYER
  8
0
  9
$CELTYPE
  6
ByLayer
  9
$CECOLOR
 62
   256
  9
$CELTSCALE
 40
1.0
  9
$DISPSILH
 70
     0
  9
$DIMSCALE
 40
1.0
  9
$DIMASZ
 40
3.302
  9
$DIMEXO
 40
1.0
  9
$DIMDLI
 40
3.75
  9
$DIMRND
 40
0.0
  9
$DIMDLE
 40
0.0
  9
$DIMEXE
 40
1.0
  9
$DIMTP
 40
0.0
  9
$DIMTM
 40
0.0
  9
$DIMTXT
 40
3.5
  9
$DIMCEN
 40
2.5
  9
$DIMTSZ
 40
0.0
  9
$DIMTOL
 70
     0
  9
$DIMLIM
 70
     0
  9
$DIMTIH
 70
     1
  9
$DIMTOH
 70
     1
  9
$DIMSE1
 70
     0
  9
$DIMSE2
 70
     0
  9
$DIMTAD
 70
     1
  9
$DIMZIN
 70
     0
  9
$DIMBLK
  1

  9
$DIMASO
 70
     1
  9
$DIMSHO
 70
     1
  9
$DIMPOST
  1

  9
$DIMAPOST
  1

  9
$DIMALT
 70
     0
  9
$DIMALTD
 70
     3
  9
$DIMALTF
 40
0.0393700787
  9
$DIMLFAC
 40
1.0
  9
$DIMTOFL
 70
     1
  9
$DIMTVP
 40
0.0
  9
$DIMTIX
 70
     0
  9
$DIMSOXD
 70
     0
  9
$DIMSAH
 70
     0
  9
$DIMBLK1
  1

  9
$DIMBLK2
  1

  9
$DIMSTYLE
  2
ISO-25
  9
$DIMCLRD
 70
     0
  9
$DIMCLRE
 70
     0
  9
$DIMCLRT
 70
     0
  9
$DIMTFAC
 40
1.0
  9
$DIMGAP
 40
1.524
  9
$DIMJUST
 70
     0
  9
$DIMSD1
 70
     0
  9
$DIMSD2
 70
     0
  9
$DIMTOLJ
 70
     0
  9
$DIMTZIN
 70
     0
  9
$DIMALTZ
 70
     0
  9
$DIMALTTZ
 70
     0
  9
$DIMUPT
 70
     0
  9
$DIMDEC
 70
     2
  9
$DIMTDEC
 70
     2
  9
$DIMALTU
 70
     2
  9
$DIMALTTD
 70
     3
  9
$DIMTXSTY
  7
Standard
  9
$DIMAUNIT
 70
     0
  9
$DIMADEC
 70
     2
  9
$DIMALTRND
 40
0.0
  9
$DIMAZIN
 70
     0
  9
$DIMDSEP
 70
    44
  9
$DIMATFIT
 70
     3
  9
$DIMFRAC
 70
     0
  9
$DIMLDRBLK
  1

  9
$DIMLUNIT
 70
     2
  9
$DIMLWD
 70
    -2
  9
$DIMLWE
 70
    -2
  9
$DIMTMOVE
 70
     0
  9
$LUNITS
 70
     2
  9
$LUPREC
 70
     2
  9
$SKETCHINC
 40
1.0
  9
$FILLETRAD
 40
10.0
  9
$AUNITS
 70
     0
  9
$AUPREC
 70
     2
  9
$MENU
  1
.
  9
$ELEVATION
 40
0.0
  9
$PELEVATION
 40
0.0
  9
$THICKNESS
 40
0.0
  9
$LIMCHECK
 70
     0
  9
$CHAMFERA
 40
10.0
  9
$CHAMFERB
 40
10.0
  9
$CHAMFERC
 40
20.0
  9
$CHAMFERD
 40
0.0
  9
$SKPOLY
 70
     0
  9
$TDCREATE
 40
2456413.589673819
  9
$TDUCREATE
 40
2456413.298007153
  9
$TDUPDATE
 40
2456413.589816991
  9
$TDUUPDATE
 40
2456413.298150324
  9
$TDINDWG
 40
0.0000000116
  9
$TDUSRTIMER
 40
0.0000000116
  9
$USRTIMER
 70
     1
  9
$ANGBASE
 50
0.0
  9
$ANGDIR
 70
     0
  9
$PDMODE
 70
     0
  9
$PDSIZE
 40
-1.0
  9
$PLINEWID
 40
0.0
  9
$SPLFRAME
 70
     0
  9
$SPLINETYPE
 70
     6
  9
$SPLINESEGS
 70
     8
  9
$HANDSEED
  5
2C8
  9
$SURFTAB1
 70
     6
  9
$SURFTAB2
 70
     6
  9
$SURFTYPE
 70
     6
  9
$SURFU
 70
     6
  9
$SURFV
 70
     6
  9
$UCSBASE
  2

  9
$UCSNAME
  2

  9
$UCSORG
 10
0.0
 20
0.0
 30
0.0
  9
$UCSXDIR
 10
1.0
 20
0.0
 30
0.0
  9
$UCSYDIR
 10
0.0
 20
1.0
 30
0.0
  9
$UCSORTHOREF
  2

  9
$UCSORTHOVIEW
 70
     0
  9
$UCSORGTOP
 10
0.0
 20
0.0
 30
0.0
  9
$UCSORGBOTTOM
 10
0.0
 20
0.0
 30
0.0
  9
$UCSORGLEFT
 10
0.0
 20
0.0
 30
0.0
  9
$UCSORGRIGHT
 10
0.0
 20
0.0
 30
0.0
  9
$UCSORGFRONT
 10
0.0
 20
0.0
 30
0.0
  9
$UCSORGBACK
 10
0.0
 20
0.0
 30
0.0
  9
$PUCSBASE
  2

  9
$PUCSNAME
  2

  9
$PUCSORG
 10
0.0
 20
0.0
 30
0.0
  9
$PUCSXDIR
 10
1.0
 20
0.0
 30
0.0
  9
$PUCSYDIR
 10
0.0
 20
1.0
 30
0.0
  9
$PUCSORTHOREF
  2

  9
$PUCSORTHOVIEW
 70
     0
  9
$PUCSORGTOP
 10
0.0
 20
0.0
 30
0.0
  9
$PUCSORGBOTTOM
 10
0.0
 20
0.0
 30
0.0
  9
$PUCSORGLEFT
 10
0.0
 20
0.0
 30
0.0
  9
$PUCSORGRIGHT
 10
0.0
 20
0.0
 30
0.0
  9
$PUCSORGFRONT
 10
0.0
 20
0.0
 30
0.0
  9
$PUCSORGBACK
 10
0.0
 20
0.0
 30
0.0
  9
$USERI1
 70
     0
  9
$USERI2
 70
     0
  9
$USERI3
 70
     0
  9
$USERI4
 70
     0
  9
$USERI5
 70
     0
  9
$USERR1
 40
0.0
  9
$USERR2
 40
0.0
  9
$USERR3
 40
0.0
  9
$USERR4
 40
0.0
  9
$USERR5
 40
0.0
  9
$WORLDVIEW
 70
     1
  9
$SHADEDGE
 70
     3
  9
$SHADEDIF
 70
    70
  9
$TILEMODE
 70
     1
  9
$MAXACTVP
 70
    64
  9
$PINSBASE
 10
0.0
 20
0.0
 30
0.0
  9
$PLIMCHECK
 70
     0
  9
$PEXTMIN
 10
1.0000000000E+20
 20
1.0000000000E+20
 30
1.0000000000E+20
  9
$PEXTMAX
 10
-1.0000000000E+20
 20
-1.0000000000E+20
 30
-1.0000000000E+20
  9
$PLIMMIN
 10
0.0
 20
0.0
  9
$PLIMMAX
 10
420.0
 20
297.0
  9
$UNITMODE
 70
     0
  9
$VISRETAIN
 70
     1
  9
$PLINEGEN
 70
     0
  9
$PSLTSCALE
 70
     1
  9
$TREEDEPTH
 70
  3020
  9
$CMLSTYLE
  2
Standard
  9
$CMLJUST
 70
     0
  9
$CMLSCALE
 40
20.0
  9
$PROXYGRAPHICS
 70
     1
  9
$MEASUREMENT
 70
     1
  9
$CELWEIGHT
370
    -1
  9
$ENDCAPS
280
     0
  9
$JOINSTYLE
280
     0
  9
$LWDISPLAY
290
     1
  9
$INSUNITS
 70
     4
  9
$HYPERLINKBASE
  1

  9
$STYLESHEET
  1

  9
$XEDIT
290
     1
  9
$CEPSNTYPE
380
     0
  9
$PSTYLEMODE
290
     1
  9
$FINGERPRINTGUID
  2
{8580D664-6FEE-4409-83BD-572FEA184CB3}
  9
$VERSIONGUID
  2
{FAEB1C32-E019-11D5-929B-00C0DF256EC4}
  9
$EXTNAMES
290
     1
  9
$PSVPSCALE
 40
0.0
  9
$OLESTARTUP
290
     0
  0
ENDSEC
  0
SECTION
  2
CLASSES
  0
CLASS
  1
ACDBDICTIONARYWDFLT
  2
AcDbDictionaryWithDefault
  3
ObjectDBX Classes
 90
        0
280
     0
281
     0
  0
CLASS
  1
VISUALSTYLE
  2
AcDbVisualStyle
  3
ObjectDBX Classes
 90
     4095
280
     0
281
     0
  0
CLASS
  1
MATERIAL
  2
AcDbMaterial
  3
ObjectDBX Classes
 90
     1153
280
     0
281
     0
  0
CLASS
  1
ACDBPLACEHOLDER
  2
AcDbPlaceHolder
  3
ObjectDBX Classes
 90
        0
280
     0
281
     0
  0
CLASS
  1
LAYOUT
  2
AcDbLayout
  3
ObjectDBX Classes
 90
        0
280
     0
281
     0
  0
ENDSEC
  0
SECTION
  2
TABLES
  0
TABLE
  2
VPORT
  5
8
330
0
100
AcDbSymbolTable
 70
     1
  0
VPORT
  5
29
330
8
100
AcDbSymbolTableRecord
100
AcDbViewportTableRecord
  2
*Active
 70
     0
 10
0.0
 20
0.0
 11
1.0
 21
1.0
 12
-82.6703699179
 22
-4.5001559852
 13
0.0
 23
0.0
 14
10.0
 24
10.0
 15
10.0
 25
10.0
 16
0.0
 26
0.0
 36
1.0
 17
0.0
 27
0.0
 37
0.0
 40
321.8233019368
 41
0.9023764887
 42
50.0
 43
0.0
 44
0.0
 50
0.0
 51
0.0
 71
     0
 72
   100
 73
     1
 74
     3
 75
     0
 76
     0
 77
     0
 78
     0
281
     0
 65
     1
110
0.0
120
0.0
130
0.0
111
1.0
121
0.0
131
0.0
112
0.0
122
1.0
132
0.0
 79
     0
146
0.0
  0
ENDTAB
  0
TABLE
  2
LTYPE
  5
5
330
0
100
AcDbSymbolTable
 70
     6
  0
LTYPE
  5
14
330
5
100
AcDbSymbolTableRecord
100
AcDbLinetypeTableRecord
  2
ByBlock
 70
     0
  3

 72
    65
 73
     0
 40
0.0
  0
LTYPE
  5
15
330
5
100
AcDbSymbolTableRecord
100
AcDbLinetypeTableRecord
  2
ByLayer
 70
     0
  3

 72
    65
 73
     0
 40
0.0
  0
LTYPE
  5
16
330
5
100
AcDbSymbolTableRecord
100
AcDbLinetypeTableRecord
  2
Continuous
 70
     0
  3
Solid line
 72
    65
 73
     0
 40
0.0
  0
LTYPE
  5
3F
330
5
100
AcDbSymbolTableRecord
100
AcDbLinetypeTableRecord
  2
HIDDEN
 70
     0
  3
Hidden __ __ __ __ __ __ __ __ __ __ __ __ __ __
 72
    65
 73
     2
 40
1.905
 49
1.27
 74
     0
 49
-0.635
 74
     0
  0
LTYPE
  5
40
330
5
100
AcDbSymbolTableRecord
100
AcDbLinetypeTableRecord
  2
PHANTOM
 70
     0
  3
Phantom ______  __  __  ______  __  __  ______
 72
    65
 73
     6
 40
12.7
 49
6.35
 74
     0
 49
-1.27
 74
     0
 49
1.27
 74
     0
 49
-1.27
 74
     0
 49
1.27
 74
     0
 49
-1.27
 74
     0
  0
LTYPE
  5
41
330
5
100
AcDbSymbolTableRecord
100
AcDbLinetypeTableRecord
  2
CENTER
 70
     0
  3
Center ____ _ ____ _ ____ _ ____ _ ____ _ ____
 72
    65
 73
     4
 40
10.16
 49
6.35
 74
     0
 49
-1.27
 74
     0
 49
1.27
 74
     0
 49
-1.27
 74
     0
  0
LTYPE
  5
42
330
5
100
AcDbSymbolTableRecord
100
AcDbLinetypeTableRecord
  2
CENTERX2
 70
     0
  3
Center (2x) ________  __  ________  __  _____
 72
    65
 73
     4
 40
20.32
 49
12.7
 74
     0
 49
-2.54
 74
     0
 49
2.54
 74
     0
 49
-2.54
 74
     0
  0
LTYPE
  5
43
330
5
100
AcDbSymbolTableRecord
100
AcDbLinetypeTableRecord
  2
DOT2
 70
     0
  3
Dot (.5x) ........................................
 72
    65
 73
     2
 40
0.635
 49
0.0
 74
     0
 49
-0.635
 74
     0
  0
ENDTAB
  0
TABLE
  2
LAYER
  5
2
330
0
100
AcDbSymbolTable
 70
     1
  0
LAYER
  5
10
330
2
100
AcDbSymbolTableRecord
100
AcDbLayerTableRecord
  2
0
 70
     0
 62
     7
  6
Continuous
370
    -3
390
F
  0
ENDTAB
  0
TABLE
  2
STYLE
  5
3
330
0
100
AcDbSymbolTable
 70
     1
  0
STYLE
  5
11
330
3
100
AcDbSymbolTableRecord
100
AcDbTextStyleTableRecord
  2
Standard
 70
     0
 40
0.0
 41
1.0
 50
0.0
 71
     0
 42
3.5
  3
txt
  4

  0
ENDTAB
  0
TABLE
  2
VIEW
  5
6
330
0
100
AcDbSymbolTable
 70
     0
  0
ENDTAB
  0
TABLE
  2
UCS
  5
7
330
0
100
AcDbSymbolTable
 70
     0
  0
ENDTAB
  0
TABLE
  2
APPID
  5
9
330
0
100
AcDbSymbolTable
 70
     1
  0
APPID
  5
12
330
9
100
AcDbSymbolTableRecord
100
AcDbRegAppTableRecord
  2
ACAD
 70
     0
  0
ENDTAB
  0
TABLE
  2
DIMSTYLE
  5
A
330
0
100
AcDbSymbolTable
 70
     1
100
AcDbDimStyleTable
  0
DIMSTYLE
105
27
330
A
100
AcDbSymbolTableRecord
100
AcDbDimStyleTableRecord
  2
ISO-25
 70
     0
 41
2.5
 42
0.625
 43
3.75
 44
1.25
 73
     0
 74
     0
 77
     1
 78
     8
140
2.5
141
2.5
143
0.0393700787
147
0.625
171
     3
172
     1
178
     0
271
     2
272
     2
274
     3
278
    44
283
     0
284
     8
340
11
  0
ENDTAB
  0
TABLE
  2
BLOCK_RECORD
  5
1
330
0
100
AcDbSymbolTable
 70
     1
  0
BLOCK_RECORD
  5
1F
330
1
100
AcDbSymbolTableRecord
100
AcDbBlockTableRecord
  2
*Model_Space
340
22
  0
BLOCK_RECORD
  5
1B
330
1
100
AcDbSymbolTableRecord
100
AcDbBlockTableRecord
  2
*Paper_Space
340
1E
  0
BLOCK_RECORD
  5
23
330
1
100
AcDbSymbolTableRecord
100
AcDbBlockTableRecord
  2
*Paper_Space0
340
26
  0
ENDTAB
  0
ENDSEC
  0
SECTION
  2
BLOCKS
  0
BLOCK
  5
20
330
1F
100
AcDbEntity
  8
0
100
AcDbBlockBegin
  2
*Model_Space
 70
     0
 10
0.0
 20
0.0
 30
0.0
  3
*Model_Space
  1

  0
ENDBLK
  5
21
330
1F
100
AcDbEntity
  8
0
100
AcDbBlockEnd
  0
BLOCK
  5
1C
330
1B
100
AcDbEntity
 67
     1
  8
0
100
AcDbBlockBegin
  2
*Paper_Space
 70
     0
 10
0.0
 20
0.0
 30
0.0
  3
*Paper_Space
  1

  0
ENDBLK
  5
1D
330
1B
100
AcDbEntity
 67
     1
  8
0
100
AcDbBlockEnd
  0
BLOCK
  5
24
330
23
100
AcDbEntity
  8
0
100
AcDbBlockBegin
  2
*Paper_Space0
 70
     0
 10
0.0
 20
0.0
 30
0.0
  3
*Paper_Space0
  1

  0
ENDBLK
  5
25
330
23
100
AcDbEntity
  8
0
100
AcDbBlockEnd
  0
ENDSEC
  0
SECTION
  2
ENTITIES
  0
CIRCLE
  5
5B
330
1F
100
AcDbEntity
  8
0
  6
Continuous
 62
     7
370
    15
100
AcDbCircle
 10
-30.191094285
 20
5.5925096286
 30
0.0
 40
1.500000000000004
  0
CIRCLE
  5
5C
330
1F
100
AcDbEntity
  8
0
  6
Continuous
 62
     7
370
    15
100
AcDbCircle
 10
-13.7807264506
 20
-15.4230895957
 30
0.0
 40
2.999989148555539
  0
CIRCLE
  5
75
330
1F
100
AcDbEntity
  8
0
  6
Continuous
 62
     7
370
    15
100
AcDbCircle
 10
-17.781171328
 20
5.5770066989
 30
0.0
 40
1.500000000000005
  0
CIRCLE
  5
76
330
1F
100
AcDbEntity
  8
0
  6
Continuous
 62
     7
370
    15
100
AcDbCircle
 10
-35.0004475824
 20
-127.2565734545
 30
0.0
 40
1.500000000000014
  0
CIRCLE
  5
77
330
1F
100
AcDbEntity
  8
0
  6
Continuous
 62
     7
370
    15
100
AcDbCircle
 10
53.1843505726
 20
-66.1736524628
 30
0.0
 40
1.5
  0
CIRCLE
  5
80
330
1F
100
AcDbEntity
  8
0
  6
Continuous
 62
     7
370
    15
100
AcDbCircle
 10
-16.0310628215
 20
-104.9585374358
 30
0.0
 40
1.500000000000014
  0
CIRCLE
  5
81
330
1F
100
AcDbEntity
  8
0
  6
Continuous
 62
     7
370
    15
100
AcDbCircle
 10
-17.781171328
 20
-55.923115356
 30
0.0
 40
1.5
  0
CIRCLE
  5
82
330
1F
100
AcDbEntity
  8
0
  6
Continuous
 62
     7
370
    15
100
AcDbCircle
 10
28.1054334782
 20
-78.0633660015
 30
0.0
 40
1.5
  0
CIRCLE
  5
83
330
1F
100
AcDbEntity
  8
0
  6
Continuous
 62
     7
370
    15
100
AcDbCircle
 10
-31.0000027049
 20
88.2563700138
 30
0.0
 40
1.5
  0
CIRCLE
  5
84
330
1F
100
AcDbEntity
  8
0
  6
Continuous
 62
     7
370
    15
100
AcDbCircle
 10
-16.0310628215
 20
-72.9584235115
 30
0.0
 40
1.500000000000014
  0
CIRCLE
  5
85
330
1F
100
AcDbEntity
  8
0
  6
Continuous
 62
     7
370
    15
100
AcDbCircle
 10
-20.0005018397
 20
17.849470346
 30
0.0
 40
1.500000000000011
  0
CIRCLE
  5
86
330
1F
100
AcDbEntity
  8
0
  6
Continuous
 62
     7
370
    15
100
AcDbCircle
 10
-32.4338514459
 20
33.2561096108
 30
0.0
 40
1.500000000000007
  0
CIRCLE
  5
87
330
1F
100
AcDbEntity
  8
0
  6
Continuous
 62
     7
370
    15
100
AcDbCircle
 10
-33.5783121661
 20
-63.0282802848
 30
0.0
 40
1.499999999999993
  0
CIRCLE
  5
88
330
1F
100
AcDbEntity
  8
0
  6
Continuous
 62
     7
370
    15
100
AcDbCircle
 10
-31.0000027049
 20
149.2559196947
 30
0.0
 40
1.5
  0
CIRCLE
  5
89
330
1F
100
AcDbEntity
  8
0
  6
Continuous
 62
     7
370
    15
100
AcDbCircle
 10
-45.1476318247
 20
-88.2563700137
 30
0.0
 40
1.499999999999986
  0
CIRCLE
  5
8A
330
1F
100
AcDbEntity
  8
0
  6
Continuous
 62
     7
370
    15
100
AcDbCircle
 10
47.5392171105
 20
15.2546244265
 30
0.0
 40
1.499999999999993
  0
CIRCLE
  5
C9
330
1F
100
AcDbEntity
  8
0
  6
Continuous
 62
     7
370
    15
100
AcDbCircle
 10
-47.5399061296
 20
15.2546244265
 30
0.0
 40
1.500000000000012
  0
CIRCLE
  5
CA
330
1F
100
AcDbEntity
  8
0
  6
Continuous
 62
     7
370
    15
100
AcDbCircle
 10
45.1469428055
 20
-88.2563700137
 30
0.0
 40
1.500000000000014
  0
CIRCLE
  5
CB
330
1F
100
AcDbEntity
  8
0
  6
Continuous
 62
     7
370
    15
100
AcDbCircle
 10
31.000002705
 20
149.2559196947
 30
0.0
 40
1.5
  0
CIRCLE
  5
CC
330
1F
100
AcDbEntity
  8
0
  6
Continuous
 62
     7
370
    15
100
AcDbCircle
 10
33.5783121661
 20
-63.0282802848
 30
0.0
 40
1.500000000000007
  0
CIRCLE
  5
CD
330
1F
100
AcDbEntity
  8
0
  6
Continuous
 62
     7
370
    15
100
AcDbCircle
 10
32.4338514459
 20
33.2561096108
 30
0.0
 40
1.5
  0
CIRCLE
  5
CE
330
1F
100
AcDbEntity
  8
0
  6
Continuous
 62
     7
370
    15
100
AcDbCircle
 10
19.9999850753
 20
17.849470346
 30
0.0
 40
1.500000000000004
  0
CIRCLE
  5
CF
330
1F
100
AcDbEntity
  8
0
  6
Continuous
 62
     7
370
    15
100
AcDbCircle
 10
-53.1850395918
 20
-66.1736524628
 30
0.0
 40
1.500000000000014
  0
CIRCLE
  5
D0
330
1F
100
AcDbEntity
  8
0
  6
Continuous
 62
     7
370
    15
100
AcDbCircle
 10
31.0000027049
 20
88.2563700138
 30
0.0
 40
1.5
  0
CIRCLE
  5
D1
330
1F
100
AcDbEntity
  8
0
  6
Continuous
 62
     7
370
    15
100
AcDbCircle
 10
-28.1061224973
 20
-78.0633660015
 30
0.0
 40
1.500000000000014
  0
CIRCLE
  5
D2
330
1F
100
AcDbEntity
  8
0
  6
Continuous
 62
     7
370
    15
100
AcDbCircle
 10
17.7191596093
 20
-55.923115356
 30
0.0
 40
1.499999999999993
  0
CIRCLE
  5
D3
330
1F
100
AcDbEntity
  8
0
  6
Continuous
 62
     7
370
    15
100
AcDbCircle
 10
15.9690511028
 20
-104.9585374358
 30
0.0
 40
1.500000000000014
  0
CIRCLE
  5
DC
330
1F
100
AcDbEntity
  8
0
  6
Continuous
 62
     7
370
    15
100
AcDbCircle
 10
15.9690511028
 20
-72.9584235115
 30
0.0
 40
1.500000000000014
  0
CIRCLE
  5
DD
330
1F
100
AcDbEntity
  8
0
  6
Continuous
 62
     7
370
    15
100
AcDbCircle
 10
4.9998670777
 20
-127.2565734545
 30
0.0
 40
1.500000000000014
  0
CIRCLE
  5
DE
330
1F
100
AcDbEntity
  8
0
  6
Continuous
 62
     7
370
    15
100
AcDbCircle
 10
17.7191596093
 20
5.5770066989
 30
0.0
 40
1.499999999999999
  0
CIRCLE
  5
F1
330
1F
100
AcDbEntity
  8
0
  6
Continuous
 62
     7
370
    15
100
AcDbCircle
 10
30.191094285
 20
5.5925096286
 30
0.0
 40
1.499999999999999
  0
CIRCLE
  5
115
330
1F
100
AcDbEntity
  8
0
  6
Continuous
 62
     7
370
    15
100
AcDbCircle
 10
-160.341163487
 20
-127.2565734545
 30
0.0
 40
1.500000000000043
  0
CIRCLE
  5
116
330
1F
100
AcDbEntity
  8
0
  6
Continuous
 62
     7
370
    15
100
AcDbCircle
 10
-134.3410278598
 20
88.2563700138
 30
0.0
 40
1.500000000000014
  0
CIRCLE
  5
117
330
1F
100
AcDbEntity
  8
0
  6
Continuous
 62
     7
370
    15
100
AcDbCircle
 10
-134.3410278597
 20
149.2559196947
 30
0.0
 40
1.5
  0
CIRCLE
  5
124
330
1F
100
AcDbEntity
  8
0
  6
Continuous
 62
     7
370
    15
100
AcDbCircle
 10
-210.9396253884
 20
-87.0703958929
 30
0.0
 40
1.500000000000014
  0
CIRCLE
  5
125
330
1F
100
AcDbEntity
  8
0
  6
Continuous
 62
     7
370
    15
100
AcDbCircle
 10
-119.7420912315
 20
-87.0703958929
 30
0.0
 40
1.500000000000014
  0
CIRCLE
  5
126
330
1F
100
AcDbEntity
  8
0
  6
Continuous
 62
     7
370
    15
100
AcDbCircle
 10
-118.5893622822
 20
16.2221794936
 30
0.0
 40
1.499999999999993
  0
CIRCLE
  5
127
330
1F
100
AcDbEntity
  8
0
  6
Continuous
 62
     7
370
    15
100
AcDbCircle
 10
-198.594125717
 20
32.3087083524
 30
0.0
 40
1.500000000000028
  0
CIRCLE
  5
16E
330
1F
100
AcDbEntity
  8
0
  6
Continuous
 62
     7
370
    15
100
AcDbCircle
 10
-165.3410305647
 20
-4.5001559776
 30
0.0
 40
4.999867077725329
  0
CIRCLE
  5
16F
330
1F
100
AcDbEntity
  8
0
  6
Continuous
 62
     7
370
    15
100
AcDbCircle
 10
-132.0879354125
 20
32.3087083524
 30
0.0
 40
1.500000000000007
  0
CIRCLE
  5
170
330
1F
100
AcDbEntity
  8
0
  6
Continuous
 62
     7
370
    15
100
AcDbCircle
 10
-212.0926988473
 20
16.2221794936
 30
0.0
 40
1.500000000000028
  0
CIRCLE
  5
175
330
1F
100
AcDbEntity
  8
0
  6
Continuous
 62
     7
370
    15
100
AcDbCircle
 10
-112.5597561639
 20
-67.3368889534
 30
0.0
 40
1.500000000000014
  0
CIRCLE
  5
176
330
1F
100
AcDbEntity
  8
0
  6
Continuous
 62
     7
370
    15
100
AcDbCircle
 10
-218.1223049656
 20
-67.3368889534
 30
0.0
 40
1.500000000000014
  0
CIRCLE
  5
183
330
1F
100
AcDbEntity
  8
0
  6
Continuous
 62
     7
370
    15
100
AcDbCircle
 10
-196.3410332696
 20
149.2559196947
 30
0.0
 40
1.5
  0
CIRCLE
  5
184
330
1F
100
AcDbEntity
  8
0
  6
Continuous
 62
     7
370
    15
100
AcDbCircle
 10
-196.3410332697
 20
88.2563700138
 30
0.0
 40
1.500000000000014
  0
CIRCLE
  5
185
330
1F
100
AcDbEntity
  8
0
  6
Continuous
 62
     7
370
    15
100
AcDbCircle
 10
-200.3414781472
 20
-127.2565734545
 30
0.0
 40
1.500000000000043
  0
SPLINE
  5
18E
330
1F
100
AcDbEntity
  8
0
  6
Continuous
 62
     7
370
    15
100
AcDbSpline
210
0.0
220
0.0
230
1.0
 70
     8
 71
     3
 72
    11
 73
     7
 74
     0
 42
0.00000001
 43
0.00000001
 12
1.0
 22
0.0
 32
0.0
 13
1.0
 23
0.0
 33
0.0
 40
2.0
 40
2.0
 40
2.0
 40
2.0
 40
3.0
 40
3.0
 40
3.0
 40
4.0
 40
4.0
 40
4.0
 40
4.0
 10
-92.10797423612607
 20
-111.2565164923429
 30
0.0
 10
-92.10797423612607
 20
-115.6748514521758
 30
0.0
 10
-88.5264529696603
 20
-119.2567172281901
 30
0.0
 10
-84.1081180098274
 20
-119.2567172281901
 30
0.0
 10
-79.68978304999445
 20
-119.2567172281901
 30
0.0
 10
-76.10826178352872
 20
-115.6748514521758
 30
0.0
 10
-76.10826178352872
 20
-111.2565164923429
 30
0.0
  0
SPLINE
  5
190
330
1F
100
AcDbEntity
  8
0
  6
Continuous
 62
     7
370
    15
100
AcDbSpline
210
0.0
220
0.0
230
1.0
 70
     8
 71
     3
 72
     8
 73
     4
 74
     0
 42
0.00000001
 43
0.00000001
 12
1.0
 22
0.0
 32
0.0
 13
1.0
 23
0.0
 33
0.0
 40
17.0
 40
17.0
 40
17.0
 40
17.0
 40
18.0
 40
18.0
 40
18.0
 40
18.0
 10
-88.54643452349241
 20
-130.5066765352734
 30
0.0
 10
-88.54643452349241
 20
-130.9190544648577
 30
0.0
 10
-88.09650505311876
 20
-131.2566738224122
 30
0.0
 10
-87.54632330412436
 20
-131.2566738224122
 30
0.0
  0
SPLINE
  5
191
330
1F
100
AcDbEntity
  8
0
  6
Continuous
 62
     7
370
    15
100
AcDbSpline
210
0.0
220
0.0
230
1.0
 70
     8
 71
     3
 72
     8
 73
     4
 74
     0
 42
0.00000001
 43
0.00000001
 12
1.0
 22
0.0
 32
0.0
 13
1.0
 23
0.0
 33
0.0
 40
16.0
 40
16.0
 40
16.0
 40
16.0
 40
17.0
 40
17.0
 40
17.0
 40
17.0
 10
-89.5465457428604
 20
-129.7566792481346
 30
0.0
 10
-88.99636399386605
 20
-129.7566792481346
 30
0.0
 10
-88.54643452349241
 20
-130.094298605689
 30
0.0
 10
-88.54643452349241
 20
-130.5066765352734
 30
0.0
  0
SPLINE
  5
193
330
1F
100
AcDbEntity
  8
0
  6
Continuous
 62
     7
370
    15
100
AcDbSpline
210
0.0
220
0.0
230
1.0
 70
     8
 71
     3
 72
     8
 73
     4
 74
     0
 42
0.00000001
 43
0.00000001
 12
1.0
 22
0.0
 32
0.0
 13
1.0
 23
0.0
 33
0.0
 40
14.0
 40
14.0
 40
14.0
 40
14.0
 40
15.0
 40
15.0
 40
15.0
 40
15.0
 10
-96.60795795901493
 20
-128.7565680287665
 30
0.0
 10
-96.60795795901493
 20
-129.3067497777608
 30
0.0
 10
-96.15802848864134
 20
-129.7566792481346
 30
0.0
 10
-95.60784673964693
 20
-129.7566792481346
 30
0.0
  0
SPLINE
  5
195
330
1F
100
AcDbEntity
  8
0
  6
Continuous
 62
     7
370
    15
100
AcDbSpline
210
0.0
220
0.0
230
1.0
 70
     8
 71
     3
 72
     8
 73
     4
 74
     0
 42
0.00000001
 43
0.00000001
 12
1.0
 22
0.0
 32
0.0
 13
1.0
 23
0.0
 33
0.0
 40
12.0
 40
12.0
 40
12.0
 40
12.0
 40
13.0
 40
13.0
 40
13.0
 40
13.0
 10
-95.60784673965479
 20
-92.25635916232162
 30
0.0
 10
-96.1580284886492
 20
-92.25635916232164
 30
0.0
 10
-96.60795795902277
 20
-92.70628863269539
 30
0.0
 10
-96.60795795902273
 20
-93.25647038168967
 30
0.0
  0
SPLINE
  5
197
330
1F
100
AcDbEntity
  8
0
  6
Continuous
 62
     7
370
    15
100
AcDbSpline
210
0.0
220
0.0
230
1.0
 70
     8
 71
     3
 72
     8
 73
     4
 74
     0
 42
0.00000001
 43
0.00000001
 12
1.0
 22
0.0
 32
0.0
 13
1.0
 23
0.0
 33
0.0
 40
10.0
 40
10.0
 40
10.0
 40
10.0
 40
11.0
 40
11.0
 40
11.0
 40
11.0
 10
-86.60822380352316
 20
-93.00635644946055
 30
0.0
 10
-86.60822380352315
 20
-92.59397851987615
 30
0.0
 10
-87.05815327389678
 20
-92.25635916232164
 30
0.0
 10
-87.60833502289118
 20
-92.25635916232162
 30
0.0
  0
SPLINE
  5
198
330
1F
100
AcDbEntity
  8
0
  6
Continuous
 62
     7
370
    15
100
AcDbSpline
210
0.0
220
0.0
230
1.0
 70
     8
 71
     3
 72
     8
 73
     4
 74
     0
 42
0.00000001
 43
0.00000001
 12
1.0
 22
0.0
 32
0.0
 13
1.0
 23
0.0
 33
0.0
 40
9.0
 40
9.0
 40
9.0
 40
9.0
 40
10.0
 40
10.0
 40
10.0
 40
10.0
 10
-85.60811258415517
 20
-93.75635373659945
 30
0.0
 10
-86.15829433314951
 20
-93.75635373659945
 30
0.0
 10
-86.60822380352316
 20
-93.41873437904495
 30
0.0
 10
-86.60822380352316
 20
-93.00635644946055
 30
0.0
  0
SPLINE
  5
19A
330
1F
100
AcDbEntity
  8
0
  6
Continuous
 62
     7
370
    15
100
AcDbSpline
210
0.0
220
0.0
230
1.0
 70
     8
 71
     3
 72
     8
 73
     4
 74
     0
 42
0.00000001
 43
0.00000001
 12
1.0
 22
0.0
 32
0.0
 13
1.0
 23
0.0
 33
0.0
 40
7.0
 40
7.0
 40
7.0
 40
7.0
 40
8.0
 40
8.0
 40
8.0
 40
8.0
 10
-81.6080122162319
 20
-93.00635644946057
 30
0.0
 10
-81.60801221623191
 20
-93.41873437904496
 30
0.0
 10
-82.05794168660556
 20
-93.75635373659945
 30
0.0
 10
-82.60812343559991
 20
-93.75635373659945
 30
0.0
  0
SPLINE
  5
19C
330
1F
100
AcDbEntity
  8
0
  6
Continuous
 62
     7
370
    15
100
AcDbSpline
210
0.0
220
0.0
230
1.0
 70
     8
 71
     3
 72
     8
 73
     4
 74
     0
 42
0.00000001
 43
0.00000001
 12
1.0
 22
0.0
 32
0.0
 13
1.0
 23
0.0
 33
0.0
 40
4.0
 40
4.0
 40
4.0
 40
4.0
 40
5.0
 40
5.0
 40
5.0
 40
5.0
 10
-71.60827806070296
 20
-93.25647038168967
 30
0.0
 10
-71.60827806070294
 20
-92.70628863269539
 30
0.0
 10
-72.05820753107665
 20
-92.25635916232167
 30
0.0
 10
-72.60804477052248
 20
-92.25635916232167
 30
0.0
  0
SPLINE
  5
19E
330
1F
100
AcDbEntity
  8
0
  6
Continuous
 62
     7
370
    15
100
AcDbSpline
210
0.0
220
0.0
230
1.0
 70
     8
 71
     3
 72
     8
 73
     4
 74
     0
 42
0.00000001
 43
0.00000001
 12
1.0
 22
0.0
 32
0.0
 13
1.0
 23
0.0
 33
0.0
 40
2.0
 40
2.0
 40
2.0
 40
2.0
 40
3.0
 40
3.0
 40
3.0
 40
3.0
 10
-72.6080447705225
 20
-129.7566792481346
 30
0.0
 10
-72.05820753107665
 20
-129.7566792481346
 30
0.0
 10
-71.60827806070296
 20
-129.3067497777608
 30
0.0
 10
-71.60827806070296
 20
-128.7565680287665
 30
0.0
  0
SPLINE
  5
1A0
330
1F
100
AcDbEntity
  8
0
  6
Continuous
 62
     7
370
    15
100
AcDbSpline
210
0.0
220
0.0
230
1.0
 70
     8
 71
     3
 72
     8
 73
     4
 74
     0
 42
0.00000001
 43
0.00000001
 12
1.0
 22
0.0
 32
0.0
 13
1.0
 23
0.0
 33
0.0
 40
0.0
 40
0.0
 40
0.0
 40
0.0
 40
1.0
 40
1.0
 40
1.0
 40
1.0
 10
-79.5468115873743
 20
-130.5066765352734
 30
0.0
 10
-79.5468115873743
 20
-130.094298605689
 30
0.0
 10
-79.09688211700065
 20
-129.7566792481346
 30
0.0
 10
-78.54670036800624
 20
-129.7566792481346
 30
0.0
  0
SPLINE
  5
1A1
330
1F
100
AcDbEntity
  8
0
  6
Continuous
 62
     7
370
    15
100
AcDbSpline
210
0.0
220
0.0
230
1.0
 70
     8
 71
     3
 72
     8
 73
     4
 74
     0
 42
0.00000001
 43
0.00000001
 12
1.0
 22
0.0
 32
0.0
 13
1.0
 23
0.0
 33
0.0
 40
19.0
 40
19.0
 40
19.0
 40
19.0
 40
20.0
 40
20.0
 40
20.0
 40
20.0
 10
-80.54657829719379
 20
-131.2566738224122
 30
0.0
 10
-79.99674105774788
 20
-131.2566738224122
 30
0.0
 10
-79.5468115873743
 20
-130.9190544648577
 30
0.0
 10
-79.5468115873743
 20
-130.5066765352734
 30
0.0
  0
SPLINE
  5
1A2
330
1F
100
AcDbEntity
  8
0
  6
Continuous
 62
     7
370
    15
100
AcDbSpline
210
0.0
220
0.0
230
1.0
 70
     8
 71
     3
 72
    11
 73
     7
 74
     0
 42
0.00000001
 43
0.00000001
 12
1.0
 22
0.0
 32
0.0
 13
1.0
 23
0.0
 33
0.0
 40
0.0
 40
0.0
 40
0.0
 40
0.0
 40
1.0
 40
1.0
 40
1.0
 40
2.0
 40
2.0
 40
2.0
 40
2.0
 10
-76.10826178352872
 20
-111.2565164923429
 30
0.0
 10
-76.10826178352872
 20
-106.83818153251
 30
0.0
 10
-79.68978304999445
 20
-103.2563157564957
 30
0.0
 10
-84.1081180098274
 20
-103.2563157564957
 30
0.0
 10
-88.5264529696603
 20
-103.2563157564957
 30
0.0
 10
-92.10797423612607
 20
-106.83818153251
 30
0.0
 10
-92.10797423612607
 20
-111.2565164923429
 30
0.0
  0
SPLINE
  5
1A3
330
1F
100
AcDbEntity
  8
0
  6
Continuous
 62
     7
370
    15
100
AcDbSpline
210
0.0
220
0.0
230
1.0
 70
     8
 71
     3
 72
     8
 73
     4
 74
     0
 42
0.00000001
 43
0.00000001
 12
1.0
 22
0.0
 32
0.0
 13
1.0
 23
0.0
 33
0.0
 40
6.0
 40
6.0
 40
6.0
 40
6.0
 40
7.0
 40
7.0
 40
7.0
 40
7.0
 10
-80.6082455064124
 20
-92.25635916232167
 30
0.0
 10
-81.1580827458582
 20
-92.25635916232167
 30
0.0
 10
-81.6080122162319
 20
-92.59397851987616
 30
0.0
 10
-81.6080122162319
 20
-93.00635644946057
 30
0.0
  0
LINE
  5
1A4
330
1F
100
AcDbEntity
  8
0
  6
Continuous
 62
     7
370
    15
100
AcDbLine
 10
20.7191487578
 20
-35.1204069949
 30
0.0
 11
20.7191487578
 21
-1.225694884
 31
0.0
  0
LINE
  5
1A5
330
1F
100
AcDbEntity
  8
0
  6
Continuous
 62
     7
370
    15
100
AcDbLine
 10
16.9164363235
 20
2.5770175503
 30
0.0
 11
15.5219569499
 21
2.5770175503
 31
0.0
  0
LINE
  5
1A6
330
1F
100
AcDbEntity
  8
0
  6
Continuous
 62
     7
370
    15
100
AcDbLine
 10
11.7191813121
 20
-1.2257580874
 30
0.0
 11
11.7191813121
 21
-35.1203437915
 31
0.0
  0
LINE
  5
1A7
330
1F
100
AcDbEntity
  8
0
  6
Continuous
 62
     7
370
    15
100
AcDbLine
 10
15.5219569499
 20
-38.9231194293
 30
0.0
 11
16.9164363235
 21
-38.9231194293
 31
0.0
  0
LINE
  5
1A8
330
1F
100
AcDbEntity
  8
0
  6
Continuous
 62
     7
370
    15
100
AcDbLine
 10
-13.5306125184
 20
100.5878818783
 30
0.0
 11
-13.5306125184
 21
137.0932175089
 31
0.0
  0
LINE
  5
1A9
330
1F
100
AcDbEntity
  8
0
  6
Continuous
 62
     7
370
    15
100
AcDbLine
 10
-16.5306016669
 20
137.2790504052
 30
0.0
 11
-16.5306016669
 21
100.402048982
 31
0.0
  0
LINE
  5
1AA
330
1F
100
AcDbEntity
  8
0
  6
Continuous
 62
     7
370
    15
100
AcDbLine
 10
-23.0008354681
 20
-124.7564676905
 30
0.0
 11
-18.5005072654
 21
-124.7564676905
 31
0.0
  0
LINE
  5
1AB
330
1F
100
AcDbEntity
  8
0
  6
Continuous
 62
     7
370
    15
100
AcDbLine
 10
-17.5007404962
 20
-123.7567009214
 30
0.0
 11
-17.5007404962
 21
-121.4260938553
 31
0.0
  0
LINE
  5
1AC
330
1F
100
AcDbEntity
  8
0
  6
Continuous
 62
     7
370
    15
100
AcDbLine
 10
-18.5008517749
 20
-120.4259825766
 30
0.0
 11
-20.0005018397
 21
-120.4259825766
 31
0.0
  0
LINE
  5
1AD
330
1F
100
AcDbEntity
  8
0
  6
Continuous
 62
     7
370
    15
100
AcDbLine
 10
-21.0002686088
 20
-119.4262158075
 30
0.0
 11
-21.0002686088
 21
-117.7563781444
 31
0.0
  0
LINE
  5
1AE
330
1F
100
AcDbEntity
  8
0
  6
Continuous
 62
     7
370
    15
100
AcDbLine
 10
-20.000501899
 20
-116.7566114346
 30
0.0
 11
-10.0000786058
 21
-116.7566114346
 31
0.0
  0
LINE
  5
1AF
330
1F
100
AcDbEntity
  8
0
  6
Continuous
 62
     7
370
    15
100
AcDbLine
 10
-9.000311896
 20
-117.7563781444
 30
0.0
 11
-9.000311896
 21
-119.4262158075
 31
0.0
  0
LINE
  5
1B0
330
1F
100
AcDbEntity
  8
0
  6
Continuous
 62
     7
370
    15
100
AcDbLine
 10
-10.0000786651
 20
-120.4259825766
 30
0.0
 11
-11.4997287298
 21
-120.4259825766
 31
0.0
  0
LINE
  5
1B1
330
1F
100
AcDbEntity
  8
0
  6
Continuous
 62
     7
370
    15
100
AcDbLine
 10
-12.4998400085
 20
-121.4260938553
 30
0.0
 11
-12.4998400085
 21
-123.7567009214
 31
0.0
  0
LINE
  5
1B2
330
1F
100
AcDbEntity
  8
0
  6
Continuous
 62
     7
370
    15
100
AcDbLine
 10
-11.5000732394
 20
-124.7564676905
 30
0.0
 11
-6.9997450366
 21
-124.7564676905
 31
0.0
  0
LINE
  5
1B3
330
1F
100
AcDbEntity
  8
0
  6
Continuous
 62
     7
370
    15
100
AcDbLine
 10
-4.9998670778
 20
-122.7565897317
 30
0.0
 11
-4.9998670778
 21
-114.7563889958
 31
0.0
  0
LINE
  5
1B4
330
1F
100
AcDbEntity
  8
0
  6
Continuous
 62
     7
370
    15
100
AcDbLine
 10
-6.9997450366
 20
-112.756511037
 30
0.0
 11
-23.0008354681
 21
-112.756511037
 31
0.0
  0
LINE
  5
1B5
330
1F
100
AcDbEntity
  8
0
  6
Continuous
 62
     7
370
    15
100
AcDbLine
 10
-25.000713427
 20
-114.7563889958
 30
0.0
 11
-25.000713427
 21
-122.7565897317
 31
0.0
  0
LINE
  5
1B6
330
1F
100
AcDbEntity
  8
0
  6
Continuous
 62
     7
370
    15
100
AcDbLine
 10
12.3608303389
 20
-74.5495408317
 30
0.0
 11
-12.440239775
 21
-74.5495408317
 31
0.0
  0
LINE
  5
1B7
330
1F
100
AcDbEntity
  8
0
  6
Continuous
 62
     7
370
    15
100
AcDbLine
 10
-14.4401177338
 20
-76.5494187905
 30
0.0
 11
-14.4401177338
 21
-101.3847676267
 31
0.0
  0
LINE
  5
1B8
330
1F
100
AcDbEntity
  8
0
  6
Continuous
 62
     7
370
    15
100
AcDbLine
 10
-12.4398952877
 20
-103.3849900729
 30
0.0
 11
12.3608303463
 21
-103.3849900729
 31
0.0
  0
LINE
  5
1B9
330
1F
100
AcDbEntity
  8
0
  6
Continuous
 62
     7
370
    15
100
AcDbLine
 10
14.3608805302
 20
-101.3849398889
 30
0.0
 11
14.3608805302
 21
-76.549591023
 31
0.0
  0
LINE
  5
1BA
330
1F
100
AcDbEntity
  8
0
  6
Continuous
 62
     7
370
    15
100
AcDbLine
 10
28.968264296
 20
-151.0063727107
 30
0.0
 11
36.0317302623
 21
-151.0063727107
 31
0.0
  0
LINE
  5
1BB
330
1F
100
AcDbEntity
  8
0
  6
Continuous
 62
     7
370
    15
100
AcDbLine
 10
36.0317302623
 20
-149.5063781364
 30
0.0
 11
28.9682642962
 21
-149.5063781364
 31
0.0
  0
LINE
  5
1BC
330
1F
100
AcDbEntity
  8
0
  6
Continuous
 62
     7
370
    15
100
AcDbLine
 10
-37.4133888053
 20
37.4343264241
 30
0.0
 11
-52.518789501
 21
19.4323194709
 31
0.0
  0
LINE
  5
1BD
330
1F
100
AcDbEntity
  8
0
  6
Continuous
 62
     7
370
    15
100
AcDbLine
 10
-31.0000032493
 20
39.7563157765
 30
0.0
 11
-32.4338828219
 21
39.7563157765
 31
0.0
  0
LINE
  5
1BE
330
1F
100
AcDbEntity
  8
0
  6
Continuous
 62
     7
370
    15
100
AcDbLine
 10
-27.0002473909
 20
81.2559359877
 30
0.0
 11
-27.0002473909
 21
43.7560716349
 31
0.0
  0
LINE
  5
1BF
330
1F
100
AcDbEntity
  8
0
  6
Continuous
 62
     7
370
    15
100
AcDbLine
 10
-31.0000027049
 20
84.2559251362
 30
0.0
 11
-30.0002365394
 21
84.2559251362
 31
0.0
  0
LINE
  5
1C0
330
1F
100
AcDbEntity
  8
0
  6
Continuous
 62
     7
370
    15
100
AcDbLine
 10
-30.000235995
 20
92.2561258721
 30
0.0
 11
-31.0000027049
 21
92.2561258721
 31
0.0
  0
LINE
  5
1C1
330
1F
100
AcDbEntity
  8
0
  6
Continuous
 62
     7
370
    15
100
AcDbLine
 10
-27.0002468465
 20
142.2561746877
 30
0.0
 11
-27.0002468465
 21
95.2561150206
 31
0.0
  0
LINE
  5
1C2
330
1F
100
AcDbEntity
  8
0
  6
Continuous
 62
     7
370
    15
100
AcDbLine
 10
-31.000002705
 20
145.2561638362
 30
0.0
 11
-30.0002359951
 21
145.2561638362
 31
0.0
  0
LINE
  5
1C3
330
1F
100
AcDbEntity
  8
0
  6
Continuous
 62
     7
370
    15
100
AcDbLine
 10
31.000002705
 20
153.2563645721
 30
0.0
 11
-31.000002705
 21
153.2563645721
 31
0.0
  0
LINE
  5
1C4
330
1F
100
AcDbEntity
  8
0
  6
Continuous
 62
     7
370
    15
100
AcDbLine
 10
30.0002359951
 20
145.2561638362
 30
0.0
 11
31.000002705
 21
145.2561638362
 31
0.0
  0
LINE
  5
1C5
330
1F
100
AcDbEntity
  8
0
  6
Continuous
 62
     7
370
    15
100
AcDbLine
 10
27.0002468465
 20
95.2561150206
 30
0.0
 11
27.0002468465
 21
142.2561746877
 31
0.0
  0
LINE
  5
1C6
330
1F
100
AcDbEntity
  8
0
  6
Continuous
 62
     7
370
    15
100
AcDbLine
 10
31.0000027049
 20
92.2561258721
 30
0.0
 11
30.000235995
 21
92.2561258721
 31
0.0
  0
LINE
  5
1C7
330
1F
100
AcDbEntity
  8
0
  6
Continuous
 62
     7
370
    15
100
AcDbLine
 10
30.0002365394
 20
84.2559251362
 30
0.0
 11
31.0000027049
 21
84.2559251362
 31
0.0
  0
LINE
  5
1C8
330
1F
100
AcDbEntity
  8
0
  6
Continuous
 62
     7
370
    15
100
AcDbLine
 10
27.0002473909
 20
43.7560716349
 30
0.0
 11
27.0002473909
 21
81.2559359877
 31
0.0
  0
LINE
  5
1C9
330
1F
100
AcDbEntity
  8
0
  6
Continuous
 62
     7
370
    15
100
AcDbLine
 10
32.4338828219
 20
39.7563157765
 30
0.0
 11
31.0000032493
 21
39.7563157765
 31
0.0
  0
LINE
  5
1CA
330
1F
100
AcDbEntity
  8
0
  6
Continuous
 62
     7
370
    15
100
AcDbLine
 10
52.518789501
 20
19.4323194709
 30
0.0
 11
37.4134436545
 21
37.434297801
 31
0.0
  0
LINE
  5
1CB
330
1F
100
AcDbEntity
  8
0
  6
Continuous
 62
     7
370
    15
100
AcDbLine
 10
50.6042304963
 20
-92.2728773351
 30
0.0
 11
59.2934503291
 21
-68.3980211128
 31
0.0
  0
LINE
  5
1CC
330
1F
100
AcDbEntity
  8
0
  6
Continuous
 62
     7
370
    15
100
AcDbLine
 10
50.0006492151
 20
-127.2578219879
 30
0.0
 11
50.0006492151
 21
-95.6961483356
 31
0.0
  0
LINE
  5
1CD
330
1F
100
AcDbEntity
  8
0
  6
Continuous
 62
     7
370
    15
100
AcDbLine
 10
45.0007821373
 20
-131.2579223558
 30
0.0
 11
46.0005488472
 21
-131.2579223558
 31
0.0
  0
LINE
  5
1CE
330
1F
100
AcDbEntity
  8
0
  6
Continuous
 62
     7
370
    15
100
AcDbLine
 10
40.0009150566
 20
-150.2576239569
 30
0.0
 11
40.0009150566
 21
-136.2577894365
 31
0.0
  0
LINE
  5
1CF
330
1F
100
AcDbEntity
  8
0
  6
Continuous
 62
     7
370
    15
100
AcDbLine
 10
28.0000135564
 20
-153.2576131055
 30
0.0
 11
37.0009259081
 21
-153.2576131055
 31
0.0
  0
LINE
  5
1D0
330
1F
100
AcDbEntity
  8
0
  6
Continuous
 62
     7
370
    15
100
AcDbLine
 10
24.9987758744
 20
-136.2567131549
 30
0.0
 11
24.9987758744
 21
-150.2563754235
 31
0.0
  0
LINE
  5
1D1
330
1F
100
AcDbEntity
  8
0
  6
Continuous
 62
     7
370
    15
100
AcDbLine
 10
-46.0018860001
 20
-131.2566738224
 30
0.0
 11
19.998736542
 21
-131.2566738224
 31
0.0
  0
LINE
  5
1D2
330
1F
100
AcDbEntity
  8
0
  6
Continuous
 62
     7
370
    15
100
AcDbLine
 10
-50.0016418733
 20
-95.6881445664
 30
0.0
 11
-50.0016418733
 21
-127.2569179492
 31
0.0
  0
LINE
  5
1D3
330
1F
100
AcDbEntity
  8
0
  6
Continuous
 62
     7
370
    15
100
AcDbLine
 10
33.776060639
 20
-76.9347527424
 30
0.0
 11
42.7847492199
 21
-80.2132704315
 31
0.0
  0
LINE
  5
1D4
330
1F
100
AcDbEntity
  8
0
  6
Continuous
 62
     7
370
    15
100
AcDbLine
 10
46.2045871195
 20
-70.8162631387
 30
0.0
 11
37.1958985386
 21
-67.5377454496
 31
0.0
  0
LINE
  5
1D5
330
1F
100
AcDbEntity
  8
0
  6
Continuous
 62
     7
370
    15
100
AcDbLine
 10
16.4691067124
 20
100.4987129383
 30
0.0
 11
16.4691067124
 21
137.182386449
 31
0.0
  0
LINE
  5
1D6
330
1F
100
AcDbEntity
  8
0
  6
Continuous
 62
     7
370
    15
100
AcDbLine
 10
13.4691175639
 20
137.182386449
 30
0.0
 11
13.4691175639
 21
100.4987129383
 31
0.0
  0
LINE
  5
1D7
330
1F
100
AcDbEntity
  8
0
  6
Continuous
 62
     7
370
    15
100
AcDbLine
 10
32.0490552816
 20
11.0684211718
 30
0.0
 11
39.3922700395
 21
17.2300246228
 31
0.0
  0
LINE
  5
1D8
330
1F
100
AcDbEntity
  8
0
  6
Continuous
 62
     7
370
    15
100
AcDbLine
 10
32.9653337659
 20
24.8901674272
 30
0.0
 11
25.6215547514
 21
18.7292365029
 31
0.0
  0
LINE
  5
1D9
330
1F
100
AcDbEntity
  8
0
  6
Continuous
 62
     7
370
    15
100
AcDbLine
 10
29.5004697322
 20
-114.7563889958
 30
0.0
 11
26.9990374531
 21
-114.7563889958
 31
0.0
  0
LINE
  5
1DA
330
1F
100
AcDbEntity
  8
0
  6
Continuous
 62
     7
370
    15
100
AcDbLine
 10
26.1991002298
 20
-116.3564726889
 30
0.0
 11
31.7004659332
 21
-123.6900284172
 31
0.0
  0
LINE
  5
1DB
330
1F
100
AcDbEntity
  8
0
  6
Continuous
 62
     7
370
    15
100
AcDbLine
 10
33.3003883226
 20
-123.6899645021
 30
0.0
 11
38.8008384143
 21
-116.3564087738
 31
0.0
  0
LINE
  5
1DC
330
1F
100
AcDbEntity
  8
0
  6
Continuous
 62
     7
370
    15
100
AcDbLine
 10
38.0008532482
 20
-114.7563889958
 30
0.0
 11
35.5004697322
 21
-114.7563889958
 31
0.0
  0
LINE
  5
1DD
330
1F
100
AcDbEntity
  8
0
  6
Continuous
 62
     7
370
    15
100
AcDbLine
 10
34.5004697322
 20
-113.7563889958
 30
0.0
 11
34.5004697322
 21
-102.3849398889
 31
0.0
  0
LINE
  5
1DE
330
1F
100
AcDbEntity
  8
0
  6
Continuous
 62
     7
370
    15
100
AcDbLine
 10
33.5004697322
 20
-101.3849398889
 30
0.0
 11
31.5004697322
 21
-101.3849398889
 31
0.0
  0
LINE
  5
1DF
330
1F
100
AcDbEntity
  8
0
  6
Continuous
 62
     7
370
    15
100
AcDbLine
 10
30.5004697322
 20
-102.3849398889
 30
0.0
 11
30.5004697322
 21
-113.7563889958
 31
0.0
  0
LINE
  5
1E0
330
1F
100
AcDbEntity
  8
0
  6
Continuous
 62
     7
370
    15
100
AcDbLine
 10
-25.6215547514
 20
18.7292365029
 30
0.0
 11
-32.9653337659
 21
24.8901674272
 31
0.0
  0
LINE
  5
1E1
330
1F
100
AcDbEntity
  8
0
  6
Continuous
 62
     7
370
    15
100
AcDbLine
 10
-39.3922700395
 20
17.2300246228
 30
0.0
 11
-32.0490552816
 21
11.0684211718
 31
0.0
  0
LINE
  5
1E2
330
1F
100
AcDbEntity
  8
0
  6
Continuous
 62
     7
370
    15
100
AcDbLine
 10
-38.0580924317
 20
-67.5378295059
 30
0.0
 11
-47.0656390874
 21
-70.8161823697
 31
0.0
  0
LINE
  5
1E3
330
1F
100
AcDbEntity
  8
0
  6
Continuous
 62
     7
370
    15
100
AcDbLine
 10
-43.6455701931
 20
-80.2131055843
 30
0.0
 11
-34.6380235374
 21
-76.9347527206
 31
0.0
  0
LINE
  5
1E4
330
1F
100
AcDbEntity
  8
0
  6
Continuous
 62
     7
370
    15
100
AcDbLine
 10
-59.2931937326
 20
-68.396772667
 30
0.0
 11
-50.6048212728
 21
-92.2674077699
 31
0.0
  0
LINE
  5
1E5
330
1F
100
AcDbEntity
  8
0
  6
Continuous
 62
     7
370
    15
100
AcDbLine
 10
-188.3418660329
 20
-124.7564676906
 30
0.0
 11
-183.8415378301
 21
-124.7564676906
 31
0.0
  0
LINE
  5
1E6
330
1F
100
AcDbEntity
  8
0
  6
Continuous
 62
     7
370
    15
100
AcDbLine
 10
-182.841771061
 20
-123.7567009214
 30
0.0
 11
-182.841771061
 21
-121.4260938553
 31
0.0
  0
LINE
  5
1E7
330
1F
100
AcDbEntity
  8
0
  6
Continuous
 62
     7
370
    15
100
AcDbLine
 10
-183.8418823397
 20
-120.4259825766
 30
0.0
 11
-185.3415324044
 21
-120.4259825766
 31
0.0
  0
LINE
  5
1E8
330
1F
100
AcDbEntity
  8
0
  6
Continuous
 62
     7
370
    15
100
AcDbLine
 10
-186.3412991735
 20
-119.4262158075
 30
0.0
 11
-186.3412991735
 21
-117.7563781444
 31
0.0
  0
LINE
  5
1E9
330
1F
100
AcDbEntity
  8
0
  6
Continuous
 62
     7
370
    15
100
AcDbLine
 10
-185.3415324637
 20
-116.7566114346
 30
0.0
 11
-175.3411091705
 21
-116.7566114346
 31
0.0
  0
LINE
  5
1EA
330
1F
100
AcDbEntity
  8
0
  6
Continuous
 62
     7
370
    15
100
AcDbLine
 10
-174.3413424607
 20
-117.7563781444
 30
0.0
 11
-174.3413424607
 21
-119.4262158075
 31
0.0
  0
LINE
  5
1EB
330
1F
100
AcDbEntity
  8
0
  6
Continuous
 62
     7
370
    15
100
AcDbLine
 10
-175.3411092298
 20
-120.4259825766
 30
0.0
 11
-176.8407592946
 21
-120.4259825766
 31
0.0
  0
LINE
  5
1EC
330
1F
100
AcDbEntity
  8
0
  6
Continuous
 62
     7
370
    15
100
AcDbLine
 10
-177.8408705733
 20
-121.4260938553
 30
0.0
 11
-177.8408705733
 21
-123.7567009214
 31
0.0
  0
LINE
  5
1ED
330
1F
100
AcDbEntity
  8
0
  6
Continuous
 62
     7
370
    15
100
AcDbLine
 10
-176.8411038041
 20
-124.7564676905
 30
0.0
 11
-172.3407756014
 21
-124.7564676905
 31
0.0
  0
LINE
  5
1EE
330
1F
100
AcDbEntity
  8
0
  6
Continuous
 62
     7
370
    15
100
AcDbLine
 10
-170.3408976425
 20
-122.7565897317
 30
0.0
 11
-170.3408976425
 21
-114.7563889958
 31
0.0
  0
LINE
  5
1EF
330
1F
100
AcDbEntity
  8
0
  6
Continuous
 62
     7
370
    15
100
AcDbLine
 10
-172.3407756014
 20
-112.756511037
 30
0.0
 11
-188.3418660329
 21
-112.756511037
 31
0.0
  0
LINE
  5
1F0
330
1F
100
AcDbEntity
  8
0
  6
Continuous
 62
     7
370
    15
100
AcDbLine
 10
-190.3417439917
 20
-114.7563889958
 30
0.0
 11
-190.3417439917
 21
-122.7565897317
 31
0.0
  0
LINE
  5
1F1
330
1F
100
AcDbEntity
  8
0
  6
Continuous
 62
     7
370
    15
100
AcDbLine
 10
-194.3411553406
 20
51.5061584344
 30
0.0
 11
-194.3411553406
 21
73.5058491841
 31
0.0
  0
LINE
  5
1F2
330
1F
100
AcDbEntity
  8
0
  6
Continuous
 62
     7
370
    15
100
AcDbLine
 10
-198.3409111989
 20
73.5058491841
 30
0.0
 11
-198.3409111989
 21
51.5061584344
 31
0.0
  0
LINE
  5
1F3
330
1F
100
AcDbEntity
  8
0
  6
Continuous
 62
     7
370
    15
100
AcDbLine
 10
-129.3726767522
 20
-150.8852776044
 30
0.0
 11
-121.3090995666
 21
-150.8852776044
 31
0.0
  0
LINE
  5
1F4
330
1F
100
AcDbEntity
  8
0
  6
Continuous
 62
     7
370
    15
100
AcDbLine
 10
-121.3090995666
 20
-149.3852830301
 30
0.0
 11
-129.3726767522
 21
-149.3852830301
 31
0.0
  0
LINE
  5
1F5
330
1F
100
AcDbEntity
  8
0
  6
Continuous
 62
     7
370
    15
100
AcDbLine
 10
-178.8712985735
 20
-108.5705477973
 30
0.0
 11
-178.8712985735
 21
-68.5702331372
 31
0.0
  0
LINE
  5
1F6
330
1F
100
AcDbEntity
  8
0
  6
Continuous
 62
     7
370
    15
100
AcDbLine
 10
-181.8712877221
 20
-68.5702331372
 30
0.0
 11
-181.8712877221
 21
-108.5705477973
 31
0.0
  0
LINE
  5
1F7
330
1F
100
AcDbEntity
  8
0
  6
Continuous
 62
     7
370
    15
100
AcDbLine
 10
-196.3410332697
 20
143.5993034985
 30
0.0
 11
-196.3410332697
 21
136.912945509
 31
0.0
  0
LINE
  5
1F8
330
1F
100
AcDbEntity
  8
0
  6
Continuous
 62
     7
370
    15
100
AcDbLine
 10
-134.3410278597
 20
153.2563645721
 30
0.0
 11
-196.3410332698
 21
153.2563645721
 31
0.0
  0
LINE
  5
1F9
330
1F
100
AcDbEntity
  8
0
  6
Continuous
 62
     7
370
    15
100
AcDbLine
 10
-134.3410278597
 20
136.912945509
 30
0.0
 11
-134.3410278597
 21
143.5993034985
 31
0.0
  0
LINE
  5
1FA
330
1F
100
AcDbEntity
  8
0
  6
Continuous
 62
     7
370
    15
100
AcDbLine
 10
-130.3409274919
 20
106.2563049051
 30
0.0
 11
-130.3409274919
 21
131.2559848033
 31
0.0
  0
LINE
  5
1FB
330
1F
100
AcDbEntity
  8
0
  6
Continuous
 62
     7
370
    15
100
AcDbLine
 10
-134.3410278598
 20
93.9129862098
 30
0.0
 11
-134.3410278598
 21
100.5993441994
 31
0.0
  0
LINE
  5
1FC
330
1F
100
AcDbEntity
  8
0
  6
Continuous
 62
     7
370
    15
100
AcDbLine
 10
-134.3410278598
 20
79.1628098898
 30
0.0
 11
-134.3410278598
 21
82.5990647985
 31
0.0
  0
LINE
  5
1FD
330
1F
100
AcDbEntity
  8
0
  6
Continuous
 62
     7
370
    15
100
AcDbLine
 10
-130.3409274918
 20
51.5061584344
 30
0.0
 11
-130.3409274918
 21
73.505849184
 31
0.0
  0
LINE
  5
1FE
330
1F
100
AcDbEntity
  8
0
  6
Continuous
 62
     7
370
    15
100
AcDbLine
 10
-112.8222410638
 20
19.4323194708
 30
0.0
 11
-134.3410278597
 21
45.0775935036
 31
0.0
  0
LINE
  5
1FF
330
1F
100
AcDbEntity
  8
0
  6
Continuous
 62
     7
370
    15
100
AcDbLine
 10
-114.7368000687
 20
-92.2728773356
 30
0.0
 11
-106.0475802358
 21
-68.3980211131
 31
0.0
  0
LINE
  5
200
330
1F
100
AcDbEntity
  8
0
  6
Continuous
 62
     7
370
    15
100
AcDbLine
 10
-115.3409817494
 20
-149.256608714
 30
0.0
 11
-115.3403813499
 21
-95.6961483358
 31
0.0
  0
LINE
  5
201
330
1F
100
AcDbEntity
  8
0
  6
Continuous
 62
     7
370
    15
100
AcDbLine
 10
-146.3409844544
 20
-153.2565368292
 30
0.0
 11
-119.3409547031
 21
-153.2565368292
 31
0.0
  0
LINE
  5
202
330
1F
100
AcDbEntity
  8
0
  6
Continuous
 62
     7
370
    15
100
AcDbLine
 10
-150.341084826
 20
-158.2565761597
 30
0.0
 11
-150.341084826
 21
-157.2566372008
 31
0.0
  0
LINE
  5
203
330
1F
100
AcDbEntity
  8
0
  6
Continuous
 62
     7
370
    15
100
AcDbLine
 10
-165.2176961468
 20
-162.2566765425
 30
0.0
 11
-154.3411852088
 21
-162.2566765425
 31
0.0
  0
LINE
  5
204
330
1F
100
AcDbEntity
  8
0
  6
Continuous
 62
     7
370
    15
100
AcDbLine
 10
-190.3410549729
 20
-159.7565707033
 30
0.0
 11
-170.3405058901
 21
-159.7565707033
 31
0.0
  0
LINE
  5
205
330
1F
100
AcDbEntity
  8
0
  6
Continuous
 62
     7
370
    15
100
AcDbLine
 10
-211.407469667
 20
-162.1901858734
 30
0.0
 11
-197.0584945246
 21
-162.1901858734
 31
0.0
  0
LINE
  5
206
330
1F
100
AcDbEntity
  8
0
  6
Continuous
 62
     7
370
    15
100
AcDbLine
 10
-215.3426724397
 20
-95.6881445667
 30
0.0
 11
-215.3410793795
 21
-158.2566763135
 31
0.0
  0
LINE
  5
207
330
1F
100
AcDbEntity
  8
0
  6
Continuous
 62
     7
370
    15
100
AcDbLine
 10
-224.6342242972
 20
-68.3967726672
 30
0.0
 11
-215.9458518391
 21
-92.2674077654
 31
0.0
  0
LINE
  5
208
330
1F
100
AcDbEntity
  8
0
  6
Continuous
 62
     7
370
    15
100
AcDbLine
 10
-196.3410332697
 20
45.0775935036
 30
0.0
 11
-217.8598200657
 21
19.4323194708
 31
0.0
  0
LINE
  5
209
330
1F
100
AcDbEntity
  8
0
  6
Continuous
 62
     7
370
    15
100
AcDbLine
 10
-200.3411336377
 20
73.505849184
 30
0.0
 11
-200.3411336377
 21
51.5061584344
 31
0.0
  0
LINE
  5
20A
330
1F
100
AcDbEntity
  8
0
  6
Continuous
 62
     7
370
    15
100
AcDbLine
 10
-196.3410332697
 20
82.5990647985
 30
0.0
 11
-196.3410332697
 21
79.1628098898
 31
0.0
  0
LINE
  5
20B
330
1F
100
AcDbEntity
  8
0
  6
Continuous
 62
     7
370
    15
100
AcDbLine
 10
-196.3410332697
 20
100.5993441994
 30
0.0
 11
-196.3410332697
 21
93.9129862098
 31
0.0
  0
LINE
  5
20C
330
1F
100
AcDbEntity
  8
0
  6
Continuous
 62
     7
370
    15
100
AcDbLine
 10
-200.3411336376
 20
131.2559848033
 30
0.0
 11
-200.3411336376
 21
106.2563049051
 31
0.0
  0
LINE
  5
20D
330
1F
100
AcDbEntity
  8
0
  6
Continuous
 62
     7
370
    15
100
AcDbLine
 10
-194.3411553405
 20
106.2563049051
 30
0.0
 11
-194.3411553405
 21
131.2559848033
 31
0.0
  0
LINE
  5
20E
330
1F
100
AcDbEntity
  8
0
  6
Continuous
 62
     7
370
    15
100
AcDbLine
 10
-198.3409111989
 20
131.2559848033
 30
0.0
 11
-198.3409111989
 21
106.2563049051
 31
0.0
  0
LINE
  5
20F
330
1F
100
AcDbEntity
  8
0
  6
Continuous
 62
     7
370
    15
100
AcDbLine
 10
-144.3726224949
 20
-150.8852776044
 30
0.0
 11
-136.3090453093
 21
-150.8852776044
 31
0.0
  0
LINE
  5
210
330
1F
100
AcDbEntity
  8
0
  6
Continuous
 62
     7
370
    15
100
AcDbLine
 10
-136.3090453093
 20
-149.3852830301
 30
0.0
 11
-144.3726224949
 21
-149.3852830301
 31
0.0
  0
LINE
  5
211
330
1F
100
AcDbEntity
  8
0
  6
Continuous
 62
     7
370
    15
100
AcDbLine
 10
-148.8717515975
 20
-108.5705477973
 30
0.0
 11
-148.8717515975
 21
-68.5702331371
 31
0.0
  0
LINE
  5
212
330
1F
100
AcDbEntity
  8
0
  6
Continuous
 62
     7
370
    15
100
AcDbLine
 10
-151.8717407461
 20
-68.5702331371
 30
0.0
 11
-151.8717407461
 21
-108.5705477973
 31
0.0
  0
LINE
  5
213
330
1F
100
AcDbEntity
  8
0
  6
Continuous
 62
     7
370
    15
100
AcDbLine
 10
-132.3411499306
 20
106.2563049051
 30
0.0
 11
-132.3411499306
 21
131.2559848033
 31
0.0
  0
LINE
  5
214
330
1F
100
AcDbEntity
  8
0
  6
Continuous
 62
     7
370
    15
100
AcDbLine
 10
-136.340905789
 20
131.2559848033
 30
0.0
 11
-136.340905789
 21
106.2563049051
 31
0.0
  0
LINE
  5
215
330
1F
100
AcDbEntity
  8
0
  6
Continuous
 62
     7
370
    15
100
AcDbLine
 10
-136.3409057889
 20
73.5058491841
 30
0.0
 11
-136.3409057889
 21
51.5061584344
 31
0.0
  0
LINE
  5
216
330
1F
100
AcDbEntity
  8
0
  6
Continuous
 62
     7
370
    15
100
AcDbLine
 10
-132.3411499306
 20
51.5061584344
 30
0.0
 11
-132.3411499306
 21
73.5058491841
 31
0.0
  0
LINE
  5
217
330
1F
100
AcDbEntity
  8
0
  6
Continuous
 62
     7
370
    15
100
AcDbLine
 10
-87.5463233041
 20
-131.2566738224
 30
0.0
 11
-80.5465782972
 21
-131.2566738224
 31
0.0
  0
LINE
  5
218
330
1F
100
AcDbEntity
  8
0
  6
Continuous
 62
     7
370
    15
100
AcDbLine
 10
-95.6078467396
 20
-129.7566792481
 30
0.0
 11
-89.5465457429
 21
-129.7566792481
 31
0.0
  0
LINE
  5
219
330
1F
100
AcDbEntity
  8
0
  6
Continuous
 62
     7
370
    15
100
AcDbLine
 10
-96.607957959
 20
-93.2564703817
 30
0.0
 11
-96.607957959
 21
-128.7565680288
 31
0.0
  0
LINE
  5
21A
330
1F
100
AcDbEntity
  8
0
  6
Continuous
 62
     7
370
    15
100
AcDbLine
 10
-87.6083350229
 20
-92.2563591623
 30
0.0
 11
-95.6078467397
 21
-92.2563591623
 31
0.0
  0
LINE
  5
21B
330
1F
100
AcDbEntity
  8
0
  6
Continuous
 62
     7
370
    15
100
AcDbLine
 10
-82.6081234356
 20
-93.7563537366
 30
0.0
 11
-85.6081125842
 21
-93.7563537366
 31
0.0
  0
LINE
  5
21C
330
1F
100
AcDbEntity
  8
0
  6
Continuous
 62
     7
370
    15
100
AcDbLine
 10
-72.6080447705
 20
-92.2563591623
 30
0.0
 11
-80.6082455064
 21
-92.2563591623
 31
0.0
  0
LINE
  5
21D
330
1F
100
AcDbEntity
  8
0
  6
Continuous
 62
     7
370
    15
100
AcDbLine
 10
-71.6082780607
 20
-128.7565680288
 30
0.0
 11
-71.6082780607
 21
-93.2564703817
 31
0.0
  0
LINE
  5
21E
330
1F
100
AcDbEntity
  8
0
  6
Continuous
 62
     7
370
    15
100
AcDbLine
 10
-78.546700368
 20
-129.7566792481
 30
0.0
 11
-72.6080447705
 21
-129.7566792481
 31
0.0
  0
ARC
  5
21F
330
1F
100
AcDbEntity
  8
0
  6
Continuous
 62
     7
370
    15
100
AcDbCircle
 10
21.7191487578
 20
-1.225694884
 30
0.0
 40
1.000000000000004
100
AcDbArc
 50
148.9981677202
 51
180.0
  0
ARC
  5
220
330
1F
100
AcDbEntity
  8
0
  6
Continuous
 62
     7
370
    15
100
AcDbCircle
 10
18.7191487578
 20
0.5770175503
 30
0.0
 40
2.499967445700007
100
AcDbArc
 50
328.9981677202
 51
121.0018322798
  0
ARC
  5
221
330
1F
100
AcDbEntity
  8
0
  6
Continuous
 62
     7
370
    15
100
AcDbCircle
 10
16.9164363235
 20
3.5770175503
 30
0.0
 40
0.9999999999999587
100
AcDbArc
 50
270.0
 51
301.0018322798
  0
ARC
  5
222
330
1F
100
AcDbEntity
  8
0
  6
Continuous
 62
     7
370
    15
100
AcDbCircle
 10
15.5219569499
 20
3.5770175503
 30
0.0
 40
1.000000000000052
100
AcDbArc
 50
238.9972808661
 51
270.0
  0
ARC
  5
223
330
1F
100
AcDbEntity
  8
0
  6
Continuous
 62
     7
370
    15
100
AcDbCircle
 10
13.7191813121
 20
0.5770175503
 30
0.0
 40
2.499999999999996
100
AcDbArc
 50
58.9972808661
 51
211.0027191339
  0
ARC
  5
224
330
1F
100
AcDbEntity
  8
0
  6
Continuous
 62
     7
370
    15
100
AcDbCircle
 10
10.7191813121
 20
-35.1203437915
 30
0.0
 40
1.000000000000146
100
AcDbArc
 50
328.9972808661
 51
0.0
  0
ARC
  5
225
330
1F
100
AcDbEntity
  8
0
  6
Continuous
 62
     7
370
    15
100
AcDbCircle
 10
13.7191813121
 20
-36.9231194293
 30
0.0
 40
2.500000000000009
100
AcDbArc
 50
148.9972808661
 51
301.0027191339
  0
ARC
  5
226
330
1F
100
AcDbEntity
  8
0
  6
Continuous
 62
     7
370
    15
100
AcDbCircle
 10
15.5219569499
 20
-39.9231194293
 30
0.0
 40
0.9999999999999726
100
AcDbArc
 50
90.0
 51
121.0027191339
  0
ARC
  5
227
330
1F
100
AcDbEntity
  8
0
  6
Continuous
 62
     7
370
    15
100
AcDbCircle
 10
16.9164363235
 20
-39.9231194293
 30
0.0
 40
0.9999999999999645
100
AcDbArc
 50
58.9981677202
 51
90.0
  0
ARC
  5
228
330
1F
100
AcDbEntity
  8
0
  6
Continuous
 62
     7
370
    15
100
AcDbCircle
 10
18.7191487578
 20
-36.9231194293
 30
0.0
 40
2.499967445700008
100
AcDbArc
 50
238.9981677202
 51
31.0018322798
  0
ARC
  5
229
330
1F
100
AcDbEntity
  8
0
  6
Continuous
 62
     7
370
    15
100
AcDbCircle
 10
21.7191487578
 20
-35.1204069949
 30
0.0
 40
0.999999999999833
100
AcDbArc
 50
180.0
 51
211.0018322798
  0
ARC
  5
22A
330
1F
100
AcDbEntity
  8
0
  6
Continuous
 62
     7
370
    15
100
AcDbCircle
 10
-17.5306016669
 20
100.402048982
 30
0.0
 40
1.000000000000178
100
AcDbArc
 50
328.6307003134
 51
360.0
  0
ARC
  5
22B
330
1F
100
AcDbEntity
  8
0
  6
Continuous
 62
     7
370
    15
100
AcDbCircle
 10
-14.9691121382
 20
98.8403923635
 30
0.0
 40
2.000000000000004
100
AcDbArc
 50
148.6307003134
 51
35.6263257499
  0
ARC
  5
22C
330
1F
100
AcDbEntity
  8
0
  6
Continuous
 62
     7
370
    15
100
AcDbCircle
 10
-12.5306125184
 20
100.5878818783
 30
0.0
 40
0.9999999999999214
100
AcDbArc
 50
180.0
 51
215.6263257499
  0
ARC
  5
22D
330
1F
100
AcDbEntity
  8
0
  6
Continuous
 62
     7
370
    15
100
AcDbCircle
 10
-12.5306125184
 20
137.0932175089
 30
0.0
 40
1.000000000000059
100
AcDbArc
 50
144.3736742501
 51
180.0
  0
ARC
  5
22E
330
1F
100
AcDbEntity
  8
0
  6
Continuous
 62
     7
370
    15
100
AcDbCircle
 10
-14.9691121382
 20
138.8407070237
 30
0.0
 40
2.000000000000023
100
AcDbArc
 50
324.3736742501
 51
211.3692996866
  0
ARC
  5
22F
330
1F
100
AcDbEntity
  8
0
  6
Continuous
 62
     7
370
    15
100
AcDbCircle
 10
-17.5306016669
 20
137.2790504052
 30
0.0
 40
0.9999999999999044
100
AcDbArc
 50
0.0
 51
31.3692996866
  0
ARC
  5
230
330
1F
100
AcDbEntity
  8
0
  6
Continuous
 62
     7
370
    15
100
AcDbCircle
 10
-23.0008354681
 20
-122.7565897317
 30
0.0
 40
1.999877958855976
100
AcDbArc
 50
179.9999999998
 51
270.0
  0
ARC
  5
231
330
1F
100
AcDbEntity
  8
0
  6
Continuous
 62
     7
370
    15
100
AcDbCircle
 10
-18.5005072654
 20
-123.7567009214
 30
0.0
 40
0.9997667691665697
100
AcDbArc
 50
270.0
 51
0.0
  0
ARC
  5
232
330
1F
100
AcDbEntity
  8
0
  6
Continuous
 62
     7
370
    15
100
AcDbCircle
 10
-18.5008517749
 20
-121.4260938553
 30
0.0
 40
1.000111278704985
100
AcDbArc
 50
0.0
 51
90.0
  0
ARC
  5
233
330
1F
100
AcDbEntity
  8
0
  6
Continuous
 62
     7
370
    15
100
AcDbCircle
 10
-20.0005018397
 20
-119.4262158075
 30
0.0
 40
0.9997667691359311
100
AcDbArc
 50
180.0
 51
270.0
  0
ARC
  5
234
330
1F
100
AcDbEntity
  8
0
  6
Continuous
 62
     7
370
    15
100
AcDbCircle
 10
-20.000501899
 20
-117.7563781444
 30
0.0
 40
0.9997667098194754
100
AcDbArc
 50
90.0
 51
180.0000000004
  0
ARC
  5
235
330
1F
100
AcDbEntity
  8
0
  6
Continuous
 62
     7
370
    15
100
AcDbCircle
 10
-10.0000786058
 20
-117.7563781444
 30
0.0
 40
0.9997667098193972
100
AcDbArc
 50
360.0
 51
90.0
  0
ARC
  5
236
330
1F
100
AcDbEntity
  8
0
  6
Continuous
 62
     7
370
    15
100
AcDbCircle
 10
-10.0000786651
 20
-119.4262158075
 30
0.0
 40
0.9997667691359737
100
AcDbArc
 50
270.0
 51
360.0
  0
ARC
  5
237
330
1F
100
AcDbEntity
  8
0
  6
Continuous
 62
     7
370
    15
100
AcDbCircle
 10
-11.4997287298
 20
-121.4260938553
 30
0.0
 40
1.000111278704956
100
AcDbArc
 50
90.0
 51
180.0
  0
ARC
  5
238
330
1F
100
AcDbEntity
  8
0
  6
Continuous
 62
     7
370
    15
100
AcDbCircle
 10
-11.5000732394
 20
-123.7567009214
 30
0.0
 40
0.9997667691665644
100
AcDbArc
 50
180.0
 51
270.0
  0
ARC
  5
239
330
1F
100
AcDbEntity
  8
0
  6
Continuous
 62
     7
370
    15
100
AcDbCircle
 10
-6.9997450366
 20
-122.7565897317
 30
0.0
 40
1.999877958855961
100
AcDbArc
 50
270.0
 51
0.0
  0
ARC
  5
23A
330
1F
100
AcDbEntity
  8
0
  6
Continuous
 62
     7
370
    15
100
AcDbCircle
 10
-6.9997450366
 20
-114.7563889958
 30
0.0
 40
1.999877958855976
100
AcDbArc
 50
0.0
 51
90.0
  0
ARC
  5
23B
330
1F
100
AcDbEntity
  8
0
  6
Continuous
 62
     7
370
    15
100
AcDbCircle
 10
-23.0008354681
 20
-114.7563889958
 30
0.0
 40
1.999877958855979
100
AcDbArc
 50
90.0
 51
180.0
  0
ARC
  5
23C
330
1F
100
AcDbEntity
  8
0
  6
Continuous
 62
     7
370
    15
100
AcDbCircle
 10
12.3608303389
 20
-76.549591023
 30
0.0
 40
2.000050191377612
100
AcDbArc
 50
0.0
 51
90.0
  0
ARC
  5
23D
330
1F
100
AcDbEntity
  8
0
  6
Continuous
 62
     7
370
    15
100
AcDbCircle
 10
-12.440239775
 20
-76.5494187905
 30
0.0
 40
1.999877958857184
100
AcDbArc
 50
90.0
 51
180.0
  0
ARC
  5
23E
330
1F
100
AcDbEntity
  8
0
  6
Continuous
 62
     7
370
    15
100
AcDbCircle
 10
-12.4398952877
 20
-101.3847676267
 30
0.0
 40
2.000222446153813
100
AcDbArc
 50
180.0
 51
270.0
  0
ARC
  5
23F
330
1F
100
AcDbEntity
  8
0
  6
Continuous
 62
     7
370
    15
100
AcDbCircle
 10
12.3608303463
 20
-101.3849398889
 30
0.0
 40
2.00005018396174
100
AcDbArc
 50
270.0
 51
0.0
  0
ARC
  5
240
330
1F
100
AcDbEntity
  8
0
  6
Continuous
 62
     7
370
    15
100
AcDbCircle
 10
36.0317302623
 20
-152.0063727107
 30
0.0
 40
1.000000000000057
100
AcDbArc
 50
61.0448150955
 51
90.0
  0
ARC
  5
241
330
1F
100
AcDbEntity
  8
0
  6
Continuous
 62
     7
370
    15
100
AcDbCircle
 10
36.999981002
 20
-150.2563754236
 30
0.0
 40
1.000000000000007
100
AcDbArc
 50
241.0448150955
 51
118.9551849045
  0
ARC
  5
242
330
1F
100
AcDbEntity
  8
0
  6
Continuous
 62
     7
370
    15
100
AcDbCircle
 10
36.0317302623
 20
-148.5063781364
 30
0.0
 40
1.000000000000091
100
AcDbArc
 50
270.0
 51
298.9551849045
  0
ARC
  5
243
330
1F
100
AcDbEntity
  8
0
  6
Continuous
 62
     7
370
    15
100
AcDbCircle
 10
28.9682642962
 20
-148.5063781364
 30
0.0
 40
0.9999999999995453
100
AcDbArc
 50
241.0448150925
 51
270.0
  0
ARC
  5
244
330
1F
100
AcDbEntity
  8
0
  6
Continuous
 62
     7
370
    15
100
AcDbCircle
 10
28.0000135564
 20
-150.2563754235
 30
0.0
 40
1.000000000000026
100
AcDbArc
 50
61.0448150925
 51
298.9551849016
  0
ARC
  5
245
330
1F
100
AcDbEntity
  8
0
  6
Continuous
 62
     7
370
    15
100
AcDbCircle
 10
28.968264296
 20
-152.0063727107
 30
0.0
 40
0.999999999999261
100
AcDbArc
 50
90.0
 51
118.9551849016
  0
ARC
  5
246
330
1F
100
AcDbEntity
  8
0
  6
Continuous
 62
     7
370
    15
100
AcDbCircle
 10
-47.5399697248
 20
15.2546233729
 30
0.0
 40
6.499368511743653
100
AcDbArc
 50
140.0002008372
 51
208.2766345596
  0
ARC
  5
247
330
1F
100
AcDbEntity
  8
0
  6
Continuous
 62
     7
370
    15
100
AcDbCircle
 10
-32.4338828219
 20
33.2560460057
 30
0.0
 40
6.500269770834209
100
AcDbArc
 50
90.0
 51
140.0001432522
  0
ARC
  5
248
330
1F
100
AcDbEntity
  8
0
  6
Continuous
 62
     7
370
    15
100
AcDbCircle
 10
-31.0000032493
 20
43.7560716349
 30
0.0
 40
3.999755858375053
100
AcDbArc
 50
270.0
 51
0.0
  0
ARC
  5
249
330
1F
100
AcDbEntity
  8
0
  6
Continuous
 62
     7
370
    15
100
AcDbCircle
 10
-30.0002365394
 20
81.2559359877
 30
0.0
 40
2.999989148555578
100
AcDbArc
 50
0.0
 51
90.0
  0
ARC
  5
24A
330
1F
100
AcDbEntity
  8
0
  6
Continuous
 62
     7
370
    15
100
AcDbCircle
 10
-31.0000027049
 20
88.2560255042
 30
0.0
 40
4.000100367923594
100
AcDbArc
 50
90.0
 51
270.0
  0
ARC
  5
24B
330
1F
100
AcDbEntity
  8
0
  6
Continuous
 62
     7
370
    15
100
AcDbCircle
 10
-30.000235995
 20
95.2561150206
 30
0.0
 40
2.999989148475208
100
AcDbArc
 50
270.0
 51
0.0
  0
ARC
  5
24C
330
1F
100
AcDbEntity
  8
0
  6
Continuous
 62
     7
370
    15
100
AcDbCircle
 10
-30.0002359951
 20
142.2561746877
 30
0.0
 40
2.999989148555567
100
AcDbArc
 50
0.0
 51
90.0
  0
ARC
  5
24D
330
1F
100
AcDbEntity
  8
0
  6
Continuous
 62
     7
370
    15
100
AcDbCircle
 10
-31.000002705
 20
149.2562642042
 30
0.0
 40
4.000100367923636
100
AcDbArc
 50
90.0
 51
270.0
  0
ARC
  5
24E
330
1F
100
AcDbEntity
  8
0
  6
Continuous
 62
     7
370
    15
100
AcDbCircle
 10
31.000002705
 20
149.2562642042
 30
0.0
 40
4.000100367923608
100
AcDbArc
 50
270.0
 51
90.0
  0
ARC
  5
24F
330
1F
100
AcDbEntity
  8
0
  6
Continuous
 62
     7
370
    15
100
AcDbCircle
 10
30.0002359951
 20
142.2561746877
 30
0.0
 40
2.999989148555528
100
AcDbArc
 50
90.0
 51
180.0
  0
ARC
  5
250
330
1F
100
AcDbEntity
  8
0
  6
Continuous
 62
     7
370
    15
100
AcDbCircle
 10
30.000235995
 20
95.2561150206
 30
0.0
 40
2.999989148475169
100
AcDbArc
 50
180.0
 51
270.0
  0
ARC
  5
251
330
1F
100
AcDbEntity
  8
0
  6
Continuous
 62
     7
370
    15
100
AcDbCircle
 10
31.0000027049
 20
88.2560255042
 30
0.0
 40
4.000100367923579
100
AcDbArc
 50
270.0
 51
90.0
  0
ARC
  5
252
330
1F
100
AcDbEntity
  8
0
  6
Continuous
 62
     7
370
    15
100
AcDbCircle
 10
30.0002365394
 20
81.2559359877
 30
0.0
 40
2.999989148555578
100
AcDbArc
 50
90.0
 51
180.0
  0
ARC
  5
253
330
1F
100
AcDbEntity
  8
0
  6
Continuous
 62
     7
370
    15
100
AcDbCircle
 10
31.0000032493
 20
43.7560716349
 30
0.0
 40
3.999755858375053
100
AcDbArc
 50
180.0
 51
270.0
  0
ARC
  5
254
330
1F
100
AcDbEntity
  8
0
  6
Continuous
 62
     7
370
    15
100
AcDbCircle
 10
32.4338828219
 20
33.2559798872
 30
0.0
 40
6.50033588934906
100
AcDbArc
 50
39.9997991628
 51
90.0
  0
ARC
  5
255
330
1F
100
AcDbEntity
  8
0
  6
Continuous
 62
     7
370
    15
100
AcDbCircle
 10
47.5399697248
 20
15.2546233729
 30
0.0
 40
6.499368511743747
100
AcDbArc
 50
331.7233654404
 51
39.9997991628
  0
ARC
  5
256
330
1F
100
AcDbEntity
  8
0
  6
Continuous
 62
     7
370
    15
100
AcDbCircle
 10
114.909393821
 20
-20.9846431589
 30
0.0
 40
69.99849905201708
100
AcDbArc
 50
151.7233654404
 51
216.2092133151
  0
ARC
  5
257
330
1F
100
AcDbEntity
  8
0
  6
Continuous
 62
     7
370
    15
100
AcDbCircle
 10
53.1854150526
 20
-66.1750103952
 30
0.0
 40
6.499990122280404
100
AcDbArc
 50
340.0010959678
 51
36.2092133151
  0
ARC
  5
258
330
1F
100
AcDbEntity
  8
0
  6
Continuous
 62
     7
370
    15
100
AcDbCircle
 10
60.0101500744
 20
-95.6961483356
 30
0.0
 40
10.00950085932603
100
AcDbArc
 50
160.0010959678
 51
180.0
  0
ARC
  5
259
330
1F
100
AcDbEntity
  8
0
  6
Continuous
 62
     7
370
    15
100
AcDbCircle
 10
46.0005488472
 20
-127.2578219879
 30
0.0
 40
4.000100367923622
100
AcDbArc
 50
270.0
 51
0.0
  0
ARC
  5
25A
330
1F
100
AcDbEntity
  8
0
  6
Continuous
 62
     7
370
    15
100
AcDbCircle
 10
45.0007821373
 20
-136.2577894365
 30
0.0
 40
4.999867080710352
100
AcDbArc
 50
90.0
 51
180.0
  0
ARC
  5
25B
330
1F
100
AcDbEntity
  8
0
  6
Continuous
 62
     7
370
    15
100
AcDbCircle
 10
37.0009259081
 20
-150.2576239569
 30
0.0
 40
2.999989148555414
100
AcDbArc
 50
270.0
 51
0.0
  0
ARC
  5
25C
330
1F
100
AcDbEntity
  8
0
  6
Continuous
 62
     7
370
    15
100
AcDbCircle
 10
28.0000135564
 20
-150.2563754235
 30
0.0
 40
3.001237681941639
100
AcDbArc
 50
180.0
 51
270.0
  0
ARC
  5
25D
330
1F
100
AcDbEntity
  8
0
  6
Continuous
 62
     7
370
    15
100
AcDbCircle
 10
19.998736542
 20
-136.2567131549
 30
0.0
 40
5.000039332472426
100
AcDbArc
 50
0.0
 51
90.0
  0
ARC
  5
25E
330
1F
100
AcDbEntity
  8
0
  6
Continuous
 62
     7
370
    15
100
AcDbCircle
 10
-46.0018860001
 20
-127.2569179492
 30
0.0
 40
3.999755873210574
100
AcDbArc
 50
180.0
 51
270.0
  0
ARC
  5
25F
330
1F
100
AcDbEntity
  8
0
  6
Continuous
 62
     7
370
    15
100
AcDbCircle
 10
-60.0030325292
 20
-95.6881445664
 30
0.0
 40
10.00139065582707
100
AcDbArc
 50
0.0
 51
20.0003641463
  0
ARC
  5
260
330
1F
100
AcDbEntity
  8
0
  6
Continuous
 62
     7
370
    15
100
AcDbCircle
 10
-53.1866296401
 20
-66.1741211516
 30
0.0
 40
6.498484806047426
100
AcDbArc
 50
143.7907866849
 51
200.0003641463
  0
ARC
  5
261
330
1F
100
AcDbEntity
  8
0
  6
Continuous
 62
     7
370
    15
100
AcDbCircle
 10
35.4859795888
 20
-72.236249096
 30
0.0
 40
4.999975932950183
100
AcDbArc
 50
70.0021161874
 51
250.0021161874
  0
ARC
  5
262
330
1F
100
AcDbEntity
  8
0
  6
Continuous
 62
     7
370
    15
100
AcDbCircle
 10
44.4946681697
 20
-75.5147667851
 30
0.0
 40
4.999975932950185
100
AcDbArc
 50
250.0021161874
 51
70.0021161874
  0
ARC
  5
263
330
1F
100
AcDbEntity
  8
0
  6
Continuous
 62
     7
370
    15
100
AcDbCircle
 10
17.4691067124
 20
100.4987129383
 30
0.0
 40
0.9999999999998188
100
AcDbArc
 50
180.0
 51
213.5574972237
  0
ARC
  5
264
330
1F
100
AcDbEntity
  8
0
  6
Continuous
 62
     7
370
    15
100
AcDbCircle
 10
17.4691067124
 20
137.182386449
 30
0.0
 40
1.000000000000064
100
AcDbArc
 50
146.4425027763
 51
180.0
  0
ARC
  5
265
330
1F
100
AcDbEntity
  8
0
  6
Continuous
 62
     7
370
    15
100
AcDbCircle
 10
14.9691121382
 20
138.8407070237
 30
0.0
 40
2.000000000000028
100
AcDbArc
 50
326.4425027763
 51
213.5574972237
  0
ARC
  5
266
330
1F
100
AcDbEntity
  8
0
  6
Continuous
 62
     7
370
    15
100
AcDbCircle
 10
12.4691175639
 20
137.182386449
 30
0.0
 40
0.9999999999998046
100
AcDbArc
 50
360.0
 51
33.5574972237
  0
ARC
  5
267
330
1F
100
AcDbEntity
  8
0
  6
Continuous
 62
     7
370
    15
100
AcDbCircle
 10
12.4691175639
 20
100.4987129383
 30
0.0
 40
1.000000000000041
100
AcDbArc
 50
326.4425027763
 51
0.0
  0
ARC
  5
268
330
1F
100
AcDbEntity
  8
0
  6
Continuous
 62
     7
370
    15
100
AcDbCircle
 10
14.9691121382
 20
98.8403923635
 30
0.0
 40
2.000000000000006
100
AcDbArc
 50
146.4425027763
 51
33.5574972237
  0
ARC
  5
269
330
1F
100
AcDbEntity
  8
0
  6
Continuous
 62
     7
370
    15
100
AcDbCircle
 10
28.8351296197
 20
14.8986816777
 30
0.0
 40
5.000021370273236
100
AcDbArc
 50
129.9943620117
 51
309.9996092308
  0
ARC
  5
26A
330
1F
100
AcDbEntity
  8
0
  6
Continuous
 62
     7
370
    15
100
AcDbCircle
 10
36.1786265213
 20
21.0599488783
 30
0.0
 40
4.999582429066721
100
AcDbArc
 50
309.9996092308
 51
129.9943620117
  0
ARC
  5
26B
330
1F
100
AcDbEntity
  8
0
  6
Continuous
 62
     7
370
    15
100
AcDbCircle
 10
29.5004697322
 20
-113.7563889958
 30
0.0
 40
0.9999999999999787
100
AcDbArc
 50
270.0
 51
0.0
  0
ARC
  5
26C
330
1F
100
AcDbEntity
  8
0
  6
Continuous
 62
     7
370
    15
100
AcDbCircle
 10
26.9990374531
 20
-115.7563889958
 30
0.0
 40
1.000000000000001
100
AcDbArc
 50
90.0
 51
216.87589196
  0
ARC
  5
26D
330
1F
100
AcDbEntity
  8
0
  6
Continuous
 62
     7
370
    15
100
AcDbCircle
 10
32.5004031565
 20
-123.0899447241
 30
0.0
 40
1.000000000000041
100
AcDbArc
 50
216.87589196
 51
323.1286858442
  0
ARC
  5
26E
330
1F
100
AcDbEntity
  8
0
  6
Continuous
 62
     7
370
    15
100
AcDbCircle
 10
38.0008532482
 20
-115.7563889958
 30
0.0
 40
1.000000000000014
100
AcDbArc
 50
323.1286858442
 51
90.0
  0
ARC
  5
26F
330
1F
100
AcDbEntity
  8
0
  6
Continuous
 62
     7
370
    15
100
AcDbCircle
 10
35.5004697322
 20
-113.7563889958
 30
0.0
 40
0.9999999999999858
100
AcDbArc
 50
180.0
 51
270.0
  0
ARC
  5
270
330
1F
100
AcDbEntity
  8
0
  6
Continuous
 62
     7
370
    15
100
AcDbCircle
 10
33.5004697322
 20
-102.3849398889
 30
0.0
 40
1.000000000000071
100
AcDbArc
 50
0.0
 51
90.0
  0
ARC
  5
271
330
1F
100
AcDbEntity
  8
0
  6
Continuous
 62
     7
370
    15
100
AcDbCircle
 10
31.5004697322
 20
-102.3849398889
 30
0.0
 40
1.0
100
AcDbArc
 50
90.0
 51
180.0
  0
ARC
  5
272
330
1F
100
AcDbEntity
  8
0
  6
Continuous
 62
     7
370
    15
100
AcDbCircle
 10
-28.8351296197
 20
14.8986816777
 30
0.0
 40
5.000021370273234
100
AcDbArc
 50
230.0003907692
 51
50.0056379883
  0
ARC
  5
273
330
1F
100
AcDbEntity
  8
0
  6
Continuous
 62
     7
370
    15
100
AcDbCircle
 10
-36.1786265213
 20
21.0599488783
 30
0.0
 40
4.999582429066722
100
AcDbArc
 50
50.0056379883
 51
230.0003907692
  0
ARC
  5
274
330
1F
100
AcDbEntity
  8
0
  6
Continuous
 62
     7
370
    15
100
AcDbCircle
 10
-36.3480579845
 20
-72.2362911132
 30
0.0
 40
4.999975928536958
100
AcDbArc
 50
289.9992922669
 51
109.9992922669
  0
ARC
  5
275
330
1F
100
AcDbEntity
  8
0
  6
Continuous
 62
     7
370
    15
100
AcDbCircle
 10
-45.3556046403
 20
-75.514643977
 30
0.0
 40
4.99997592853697
100
AcDbArc
 50
109.9992922669
 51
289.9992922669
  0
ARC
  5
276
330
1F
100
AcDbEntity
  8
0
  6
Continuous
 62
     7
370
    15
100
AcDbCircle
 10
10.7191813121
 20
-1.2257580874
 30
0.0
 40
1.000000000000169
100
AcDbArc
 50
0.0
 51
31.0027191339
  0
ARC
  5
277
330
1F
100
AcDbEntity
  8
0
  6
Continuous
 62
     7
370
    15
100
AcDbCircle
 10
-114.909393821
 20
-20.9846431589
 30
0.0
 40
69.99849905201708
100
AcDbArc
 50
323.7907866849
 51
28.2766345596
  0
ARC
  5
278
330
1F
100
AcDbEntity
  8
0
  6
Continuous
 62
     7
370
    15
100
AcDbCircle
 10
-188.3418660329
 20
-122.7565897317
 30
0.0
 40
1.99987795885599
100
AcDbArc
 50
179.9999999998
 51
270.0000000001
  0
ARC
  5
279
330
1F
100
AcDbEntity
  8
0
  6
Continuous
 62
     7
370
    15
100
AcDbCircle
 10
-183.8415378301
 20
-123.7567009214
 30
0.0
 40
0.9997667691665555
100
AcDbArc
 50
270.0
 51
0.0
  0
ARC
  5
27A
330
1F
100
AcDbEntity
  8
0
  6
Continuous
 62
     7
370
    15
100
AcDbCircle
 10
-183.8418823397
 20
-121.4260938553
 30
0.0
 40
1.000111278704964
100
AcDbArc
 50
0.0
 51
90.0
  0
ARC
  5
27B
330
1F
100
AcDbEntity
  8
0
  6
Continuous
 62
     7
370
    15
100
AcDbCircle
 10
-185.3415324044
 20
-119.4262158075
 30
0.0
 40
0.9997667691358743
100
AcDbArc
 50
180.0
 51
270.0000000001
  0
ARC
  5
27C
330
1F
100
AcDbEntity
  8
0
  6
Continuous
 62
     7
370
    15
100
AcDbCircle
 10
-185.3415324637
 20
-117.7563781444
 30
0.0
 40
0.9997667098205056
100
AcDbArc
 50
90.0
 51
180.0000000002
  0
ARC
  5
27D
330
1F
100
AcDbEntity
  8
0
  6
Continuous
 62
     7
370
    15
100
AcDbCircle
 10
-175.3411091705
 20
-117.7563781444
 30
0.0
 40
0.9997667098195961
100
AcDbArc
 50
0.0
 51
90.0
  0
ARC
  5
27E
330
1F
100
AcDbEntity
  8
0
  6
Continuous
 62
     7
370
    15
100
AcDbCircle
 10
-175.3411092298
 20
-119.4262158075
 30
0.0
 40
0.9997667691359311
100
AcDbArc
 50
270.0
 51
0.0
  0
ARC
  5
27F
330
1F
100
AcDbEntity
  8
0
  6
Continuous
 62
     7
370
    15
100
AcDbCircle
 10
-176.8407592946
 20
-121.4260938553
 30
0.0
 40
1.000111278704921
100
AcDbArc
 50
90.0
 51
180.0
  0
ARC
  5
280
330
1F
100
AcDbEntity
  8
0
  6
Continuous
 62
     7
370
    15
100
AcDbCircle
 10
-176.8411038041
 20
-123.7567009214
 30
0.0
 40
0.9997667691665271
100
AcDbArc
 50
180.0
 51
270.0
  0
ARC
  5
281
330
1F
100
AcDbEntity
  8
0
  6
Continuous
 62
     7
370
    15
100
AcDbCircle
 10
-172.3407756014
 20
-122.7565897317
 30
0.0
 40
1.999877958855933
100
AcDbArc
 50
270.0
 51
0.0
  0
ARC
  5
282
330
1F
100
AcDbEntity
  8
0
  6
Continuous
 62
     7
370
    15
100
AcDbCircle
 10
-172.3407756014
 20
-114.7563889958
 30
0.0
 40
1.999877958855961
100
AcDbArc
 50
0.0
 51
90.0
  0
ARC
  5
283
330
1F
100
AcDbEntity
  8
0
  6
Continuous
 62
     7
370
    15
100
AcDbCircle
 10
-188.3418660329
 20
-114.7563889958
 30
0.0
 40
1.999877958855933
100
AcDbArc
 50
90.0
 51
180.0
  0
ARC
  5
284
330
1F
100
AcDbEntity
  8
0
  6
Continuous
 62
     7
370
    15
100
AcDbCircle
 10
-196.3410332697
 20
51.5061584344
 30
0.0
 40
1.999877929187591
100
AcDbArc
 50
180.0
 51
0.0
  0
ARC
  5
285
330
1F
100
AcDbEntity
  8
0
  6
Continuous
 62
     7
370
    15
100
AcDbCircle
 10
-196.3410332697
 20
73.5058491841
 30
0.0
 40
1.999877929187591
100
AcDbArc
 50
0.0
 51
180.0
  0
ARC
  5
286
330
1F
100
AcDbEntity
  8
0
  6
Continuous
 62
     7
370
    15
100
AcDbCircle
 10
-129.3726767522
 20
-148.3852830301
 30
0.0
 40
0.9999999999993463
100
AcDbArc
 50
241.0448150954
 51
270.0
  0
ARC
  5
287
330
1F
100
AcDbEntity
  8
0
  6
Continuous
 62
     7
370
    15
100
AcDbCircle
 10
-130.3409274919
 20
-150.1352803173
 30
0.0
 40
1.000000000000041
100
AcDbArc
 50
61.0448150955
 51
298.9551849045
  0
ARC
  5
288
330
1F
100
AcDbEntity
  8
0
  6
Continuous
 62
     7
370
    15
100
AcDbCircle
 10
-129.3726767522
 20
-151.8852776044
 30
0.0
 40
1.000000000000315
100
AcDbArc
 50
90.0
 51
118.9551849045
  0
ARC
  5
289
330
1F
100
AcDbEntity
  8
0
  6
Continuous
 62
     7
370
    15
100
AcDbCircle
 10
-121.3090995666
 20
-151.8852776044
 30
0.0
 40
1.000000000000057
100
AcDbArc
 50
61.0448150955
 51
90.0
  0
ARC
  5
28A
330
1F
100
AcDbEntity
  8
0
  6
Continuous
 62
     7
370
    15
100
AcDbCircle
 10
-120.3408488269
 20
-150.1352803173
 30
0.0
 40
0.9999999999999956
100
AcDbArc
 50
241.0448150955
 51
118.9551849045
  0
ARC
  5
28B
330
1F
100
AcDbEntity
  8
0
  6
Continuous
 62
     7
370
    15
100
AcDbCircle
 10
-121.3090995666
 20
-148.3852830301
 30
0.0
 40
0.9999999999992679
100
AcDbArc
 50
270.0
 51
298.9551849045
  0
ARC
  5
28C
330
1F
100
AcDbEntity
  8
0
  6
Continuous
 62
     7
370
    15
100
AcDbCircle
 10
-180.3712931478
 20
-108.5705477973
 30
0.0
 40
1.499994574277821
100
AcDbArc
 50
180.0
 51
0.0
  0
ARC
  5
28D
330
1F
100
AcDbEntity
  8
0
  6
Continuous
 62
     7
370
    15
100
AcDbCircle
 10
-180.3712931478
 20
-68.5702331372
 30
0.0
 40
1.499994574277821
100
AcDbArc
 50
0.0
 51
180.0
  0
ARC
  5
28E
330
1F
100
AcDbEntity
  8
0
  6
Continuous
 62
     7
370
    15
100
AcDbCircle
 10
-198.3410332697
 20
136.912945509
 30
0.0
 40
1.999999999999972
100
AcDbArc
 50
289.4708817803
 51
0.0
  0
ARC
  5
28F
330
1F
100
AcDbEntity
  8
0
  6
Continuous
 62
     7
370
    15
100
AcDbCircle
 10
-198.3410332697
 20
143.5993034985
 30
0.0
 40
2.000000000000683
100
AcDbArc
 50
0.0
 51
70.5291182204
  0
ARC
  5
290
330
1F
100
AcDbEntity
  8
0
  6
Continuous
 62
     7
370
    15
100
AcDbCircle
 10
-196.3410332698
 20
149.2562642042
 30
0.0
 40
4.000100367923636
100
AcDbArc
 50
90.0
 51
250.5291182204
  0
ARC
  5
291
330
1F
100
AcDbEntity
  8
0
  6
Continuous
 62
     7
370
    15
100
AcDbCircle
 10
-134.3410278597
 20
149.2562642042
 30
0.0
 40
4.000100367922898
100
AcDbArc
 50
289.4708817796
 51
90.0
  0
ARC
  5
292
330
1F
100
AcDbEntity
  8
0
  6
Continuous
 62
     7
370
    15
100
AcDbCircle
 10
-132.3410278597
 20
143.5993034985
 30
0.0
 40
1.999999999999987
100
AcDbArc
 50
109.4708817796
 51
180.0
  0
ARC
  5
293
330
1F
100
AcDbEntity
  8
0
  6
Continuous
 62
     7
370
    15
100
AcDbCircle
 10
-132.3410278597
 20
136.912945509
 30
0.0
 40
2.000000000000099
100
AcDbArc
 50
180.0
 51
250.5291182197
  0
ARC
  5
294
330
1F
100
AcDbEntity
  8
0
  6
Continuous
 62
     7
370
    15
100
AcDbCircle
 10
-134.3410278598
 20
131.2559848033
 30
0.0
 40
4.000100367920339
100
AcDbArc
 50
0.0
 51
70.5291182197
  0
ARC
  5
295
330
1F
100
AcDbEntity
  8
0
  6
Continuous
 62
     7
370
    15
100
AcDbCircle
 10
-134.3410278598
 20
106.2563049051
 30
0.0
 40
4.000100367920242
100
AcDbArc
 50
289.4708817798
 51
0.0
  0
ARC
  5
296
330
1F
100
AcDbEntity
  8
0
  6
Continuous
 62
     7
370
    15
100
AcDbCircle
 10
-132.3410278598
 20
100.5993441994
 30
0.0
 40
2.000000000000035
100
AcDbArc
 50
109.4708817798
 51
180.0
  0
ARC
  5
297
330
1F
100
AcDbEntity
  8
0
  6
Continuous
 62
     7
370
    15
100
AcDbCircle
 10
-132.3410278598
 20
93.9129862098
 30
0.0
 40
2.000000000000085
100
AcDbArc
 50
180.0
 51
250.5291182203
  0
ARC
  5
298
330
1F
100
AcDbEntity
  8
0
  6
Continuous
 62
     7
370
    15
100
AcDbCircle
 10
-134.3410278598
 20
88.2560255042
 30
0.0
 40
4.000100367923877
100
AcDbArc
 50
289.4708817797
 51
70.5291182203
  0
ARC
  5
299
330
1F
100
AcDbEntity
  8
0
  6
Continuous
 62
     7
370
    15
100
AcDbCircle
 10
-132.3410278598
 20
82.5990647985
 30
0.0
 40
2.000000000002362
100
AcDbArc
 50
109.4708817799
 51
179.9999999999
  0
ARC
  5
29A
330
1F
100
AcDbEntity
  8
0
  6
Continuous
 62
     7
370
    15
100
AcDbCircle
 10
-132.3410278598
 20
79.1628098898
 30
0.0
 40
1.999999999999984
100
AcDbArc
 50
180.0000000001
 51
250.5291182208
  0
ARC
  5
29B
330
1F
100
AcDbEntity
  8
0
  6
Continuous
 62
     7
370
    15
100
AcDbCircle
 10
-134.3410278597
 20
73.5058491841
 30
0.0
 40
4.00010036793171
100
AcDbArc
 50
359.9999999988
 51
70.5291182208
  0
ARC
  5
29C
330
1F
100
AcDbEntity
  8
0
  6
Continuous
 62
     7
370
    15
100
AcDbCircle
 10
-134.3410278597
 20
51.5061584344
 30
0.0
 40
4.000100367931593
100
AcDbArc
 50
277.9867165757
 51
0.0
  0
ARC
  5
29D
330
1F
100
AcDbEntity
  8
0
  6
Continuous
 62
     7
370
    15
100
AcDbCircle
 10
-133.6462963444
 20
46.5545575002
 30
0.0
 40
1.000000000000715
100
AcDbArc
 50
97.9867165757
 51
149.7730367459
  0
ARC
  5
29E
330
1F
100
AcDbEntity
  8
0
  6
Continuous
 62
     7
370
    15
100
AcDbCircle
 10
-133.0174748922
 20
46.1881784046
 30
0.0
 40
1.727770609774665
100
AcDbArc
 50
149.7730367459
 51
219.9997991626
  0
ARC
  5
29F
330
1F
100
AcDbEntity
  8
0
  6
Continuous
 62
     7
370
    15
100
AcDbCircle
 10
-117.80106084
 20
15.2546233728
 30
0.0
 40
6.49936851174327
100
AcDbArc
 50
331.7233654403
 51
39.9997991626
  0
ARC
  5
2A0
330
1F
100
AcDbEntity
  8
0
  6
Continuous
 62
     7
370
    15
100
AcDbCircle
 10
-50.4316367439
 20
-20.9846431591
 30
0.0
 40
69.99849905201853
100
AcDbArc
 50
151.7233654403
 51
216.2092133151
  0
ARC
  5
2A1
330
1F
100
AcDbEntity
  8
0
  6
Continuous
 62
     7
370
    15
100
AcDbCircle
 10
-112.1556155123
 20
-66.1750103955
 30
0.0
 40
6.499990122280314
100
AcDbArc
 50
340.0010959677
 51
36.2092133151
  0
ARC
  5
2A2
330
1F
100
AcDbEntity
  8
0
  6
Continuous
 62
     7
370
    15
100
AcDbCircle
 10
-105.3308804906
 20
-95.696148336
 30
0.0
 40
10.009500859325
100
AcDbArc
 50
160.0010959677
 51
179.999999999
  0
ARC
  5
2A3
330
1F
100
AcDbEntity
  8
0
  6
Continuous
 62
     7
370
    15
100
AcDbCircle
 10
-119.3409547031
 20
-149.2565638753
 30
0.0
 40
3.999972953881468
100
AcDbArc
 50
270.0
 51
359.9993577285
  0
ARC
  5
2A4
330
1F
100
AcDbEntity
  8
0
  6
Continuous
 62
     7
370
    15
100
AcDbCircle
 10
-146.3409844544
 20
-157.2566372008
 30
0.0
 40
4.000100371632868
100
AcDbArc
 50
90.0
 51
180.0000000003
  0
ARC
  5
2A5
330
1F
100
AcDbEntity
  8
0
  6
Continuous
 62
     7
370
    15
100
AcDbCircle
 10
-154.3411852088
 20
-158.2565761597
 30
0.0
 40
4.000100382760706
100
AcDbArc
 50
270.0
 51
0.0
  0
ARC
  5
2A6
330
1F
100
AcDbEntity
  8
0
  6
Continuous
 62
     7
370
    15
100
AcDbCircle
 10
-165.2176961468
 20
-158.2574824065
 30
0.0
 40
3.999194135972689
100
AcDbArc
 50
217.9720922875
 51
270.0
  0
ARC
  5
2A7
330
1F
100
AcDbEntity
  8
0
  6
Continuous
 62
     7
370
    15
100
AcDbCircle
 10
-170.3405058901
 20
-162.2558432251
 30
0.0
 40
2.499272521780889
100
AcDbArc
 50
37.9720922875
 51
90.0
  0
ARC
  5
2A8
330
1F
100
AcDbEntity
  8
0
  6
Continuous
 62
     7
370
    15
100
AcDbCircle
 10
-190.3410549729
 20
-162.2566460209
 30
0.0
 40
2.500075317572317
100
AcDbArc
 50
90.0
 51
142.018928229
  0
ARC
  5
2A9
330
1F
100
AcDbEntity
  8
0
  6
Continuous
 62
     7
370
    15
100
AcDbCircle
 10
-197.0584945246
 20
-153.8008890996
 30
0.0
 40
8.389296773833257
100
AcDbArc
 50
270.0
 51
304.4593609234
  0
ARC
  5
2AA
330
1F
100
AcDbEntity
  8
0
  6
Continuous
 62
     7
370
    15
100
AcDbCircle
 10
-211.407469667
 20
-158.2565761597
 30
0.0
 40
3.933609713723526
100
AcDbArc
 50
180.0014588104
 51
270.0
  0
ARC
  5
2AB
330
1F
100
AcDbEntity
  8
0
  6
Continuous
 62
     7
370
    15
100
AcDbCircle
 10
-225.3440630955
 20
-95.6881445619
 30
0.0
 40
10.00139065582795
100
AcDbArc
 50
359.9999999725
 51
20.0003641463
  0
ARC
  5
2AC
330
1F
100
AcDbEntity
  8
0
  6
Continuous
 62
     7
370
    15
100
AcDbCircle
 10
-218.5276602047
 20
-66.1741211518
 30
0.0
 40
6.498484806049029
100
AcDbArc
 50
143.7907866849
 51
200.0003641463
  0
ARC
  5
2AD
330
1F
100
AcDbEntity
  8
0
  6
Continuous
 62
     7
370
    15
100
AcDbCircle
 10
-280.2504243856
 20
-20.9846431591
 30
0.0
 40
69.99849905201691
100
AcDbArc
 50
323.7907866849
 51
28.2766345597
  0
ARC
  5
2AE
330
1F
100
AcDbEntity
  8
0
  6
Continuous
 62
     7
370
    15
100
AcDbCircle
 10
-212.8810002895
 20
15.2546233728
 30
0.0
 40
6.499368511743593
100
AcDbArc
 50
140.0002008374
 51
208.2766345597
  0
ARC
  5
2AF
330
1F
100
AcDbEntity
  8
0
  6
Continuous
 62
     7
370
    15
100
AcDbCircle
 10
-197.6645862373
 20
46.1881784046
 30
0.0
 40
1.727770609774565
100
AcDbArc
 50
320.0002008374
 51
30.2269632541
  0
ARC
  5
2B0
330
1F
100
AcDbEntity
  8
0
  6
Continuous
 62
     7
370
    15
100
AcDbCircle
 10
-197.0357647851
 20
46.5545575002
 30
0.0
 40
1.000000000000696
100
AcDbArc
 50
30.2269632541
 51
82.0132834243
  0
ARC
  5
2B1
330
1F
100
AcDbEntity
  8
0
  6
Continuous
 62
     7
370
    15
100
AcDbCircle
 10
-196.3410332697
 20
51.5061584344
 30
0.0
 40
4.000100367931765
100
AcDbArc
 50
180.0
 51
262.0132834243
  0
ARC
  5
2B2
330
1F
100
AcDbEntity
  8
0
  6
Continuous
 62
     7
370
    15
100
AcDbCircle
 10
-196.3410332697
 20
73.5058491841
 30
0.0
 40
4.000100367932106
100
AcDbArc
 50
109.4708817792
 51
180.0000000012
  0
ARC
  5
2B3
330
1F
100
AcDbEntity
  8
0
  6
Continuous
 62
     7
370
    15
100
AcDbCircle
 10
-198.3410332697
 20
79.1628098898
 30
0.0
 40
1.999999999999946
100
AcDbArc
 50
289.4708817792
 51
0.0
  0
ARC
  5
2B4
330
1F
100
AcDbEntity
  8
0
  6
Continuous
 62
     7
370
    15
100
AcDbCircle
 10
-198.3410332697
 20
82.5990647985
 30
0.0
 40
2.000000000000013
100
AcDbArc
 50
0.0
 51
70.5291182203
  0
ARC
  5
2B5
330
1F
100
AcDbEntity
  8
0
  6
Continuous
 62
     7
370
    15
100
AcDbCircle
 10
-196.3410332697
 20
88.2560255042
 30
0.0
 40
4.000100367923562
100
AcDbArc
 50
109.4708817797
 51
250.5291182202
  0
ARC
  5
2B6
330
1F
100
AcDbEntity
  8
0
  6
Continuous
 62
     7
370
    15
100
AcDbCircle
 10
-198.3410332697
 20
93.9129862098
 30
0.0
 40
2.000000000000028
100
AcDbArc
 50
289.4708817797
 51
0.0
  0
ARC
  5
2B7
330
1F
100
AcDbEntity
  8
0
  6
Continuous
 62
     7
370
    15
100
AcDbCircle
 10
-198.3410332697
 20
100.5993441994
 30
0.0
 40
2.000000000000142
100
AcDbArc
 50
0.0
 51
70.5291182202
  0
ARC
  5
2B8
330
1F
100
AcDbEntity
  8
0
  6
Continuous
 62
     7
370
    15
100
AcDbCircle
 10
-196.3410332697
 20
106.2563049051
 30
0.0
 40
4.000100367920425
100
AcDbArc
 50
180.0
 51
250.5291182202
  0
ARC
  5
2B9
330
1F
100
AcDbEntity
  8
0
  6
Continuous
 62
     7
370
    15
100
AcDbCircle
 10
-196.3410332697
 20
131.2559848033
 30
0.0
 40
4.000100367920369
100
AcDbArc
 50
109.4708817803
 51
180.0
  0
ARC
  5
2BA
330
1F
100
AcDbEntity
  8
0
  6
Continuous
 62
     7
370
    15
100
AcDbCircle
 10
-196.3410332697
 20
106.2563049051
 30
0.0
 40
1.999877929187591
100
AcDbArc
 50
180.0
 51
0.0
  0
ARC
  5
2BB
330
1F
100
AcDbEntity
  8
0
  6
Continuous
 62
     7
370
    15
100
AcDbCircle
 10
-196.3410332697
 20
131.2559848033
 30
0.0
 40
1.999877929187591
100
AcDbArc
 50
0.0
 51
180.0
  0
ARC
  5
2BC
330
1F
100
AcDbEntity
  8
0
  6
Continuous
 62
     7
370
    15
100
AcDbCircle
 10
-144.3726224949
 20
-151.8852776044
 30
0.0
 40
1.000000000000171
100
AcDbArc
 50
90.0
 51
118.9551849045
  0
ARC
  5
2BD
330
1F
100
AcDbEntity
  8
0
  6
Continuous
 62
     7
370
    15
100
AcDbCircle
 10
-136.3090453093
 20
-151.8852776044
 30
0.0
 40
1.000000000000114
100
AcDbArc
 50
61.0448150955
 51
90.0
  0
ARC
  5
2BE
330
1F
100
AcDbEntity
  8
0
  6
Continuous
 62
     7
370
    15
100
AcDbCircle
 10
-135.3407945696
 20
-150.1352803173
 30
0.0
 40
1.000000000000016
100
AcDbArc
 50
241.0448150955
 51
118.9551849045
  0
ARC
  5
2BF
330
1F
100
AcDbEntity
  8
0
  6
Continuous
 62
     7
370
    15
100
AcDbCircle
 10
-136.3090453093
 20
-148.3852830301
 30
0.0
 40
0.9999999999991795
100
AcDbArc
 50
270.0
 51
298.9551849045
  0
ARC
  5
2C0
330
1F
100
AcDbEntity
  8
0
  6
Continuous
 62
     7
370
    15
100
AcDbCircle
 10
-144.3726224949
 20
-148.3852830301
 30
0.0
 40
1.00000000000162
100
AcDbArc
 50
241.0448150955
 51
270.0
  0
ARC
  5
2C1
330
1F
100
AcDbEntity
  8
0
  6
Continuous
 62
     7
370
    15
100
AcDbCircle
 10
-145.3408732347
 20
-150.1352803173
 30
0.0
 40
1.000000000000002
100
AcDbArc
 50
61.0448150955
 51
298.9551849045
  0
ARC
  5
2C2
330
1F
100
AcDbEntity
  8
0
  6
Continuous
 62
     7
370
    15
100
AcDbCircle
 10
-150.3717461718
 20
-108.5705477973
 30
0.0
 40
1.499994574277792
100
AcDbArc
 50
180.0
 51
0.0
  0
ARC
  5
2C3
330
1F
100
AcDbEntity
  8
0
  6
Continuous
 62
     7
370
    15
100
AcDbCircle
 10
-150.3717461718
 20
-68.5702331371
 30
0.0
 40
1.499994574277792
100
AcDbArc
 50
0.0
 51
180.0
  0
ARC
  5
2C4
330
1F
100
AcDbEntity
  8
0
  6
Continuous
 62
     7
370
    15
100
AcDbCircle
 10
-134.3410278598
 20
106.2563049051
 30
0.0
 40
1.999877929187562
100
AcDbArc
 50
180.0
 51
0.0
  0
ARC
  5
2C5
330
1F
100
AcDbEntity
  8
0
  6
Continuous
 62
     7
370
    15
100
AcDbCircle
 10
-134.3410278598
 20
131.2559848033
 30
0.0
 40
1.999877929187562
100
AcDbArc
 50
0.0
 51
180.0
  0
ARC
  5
2C6
330
1F
100
AcDbEntity
  8
0
  6
Continuous
 62
     7
370
    15
100
AcDbCircle
 10
-134.3410278597
 20
73.5058491841
 30
0.0
 40
1.999877929187562
100
AcDbArc
 50
0.0
 51
180.0
  0
ARC
  5
2C7
330
1F
100
AcDbEntity
  8
0
  6
Continuous
 62
     7
370
    15
100
AcDbCircle
 10
-134.3410278597
 20
51.5061584344
 30
0.0
 40
1.999877929187562
100
AcDbArc
 50
180.0
 51
0.0
  0
ENDSEC
  0
SECTION
  2
OBJECTS
  0
DICTIONARY
  5
C
330
0
100
AcDbDictionary
281
     1
  3
ACAD_GROUP
350
D
  3
ACAD_LAYOUT
350
1A
  3
ACAD_MLINESTYLE
350
17
  3
ACAD_PLOTSETTINGS
350
19
  3
ACAD_PLOTSTYLENAME
350
E
  0
DICTIONARY
  5
D
102
{ACAD_REACTORS
330
C
102
}
330
C
100
AcDbDictionary
281
     1
  0
DICTIONARY
  5
1A
102
{ACAD_REACTORS
330
C
102
}
330
C
100
AcDbDictionary
281
     1
  3
Layout1
350
1E
  3
Layout2
350
26
  3
Model
350
22
  0
DICTIONARY
  5
17
102
{ACAD_REACTORS
330
C
102
}
330
C
100
AcDbDictionary
281
     1
  3
Standard
350
18
  0
DICTIONARY
  5
19
102
{ACAD_REACTORS
330
C
102
}
330
C
100
AcDbDictionary
281
     1
  0
ACDBDICTIONARYWDFLT
  5
E
102
{ACAD_REACTORS
330
C
102
}
330
C
100
AcDbDictionary
281
     1
  3
Normal
350
F
100
AcDbDictionaryWithDefault
340
F
  0
LAYOUT
  5
1E
102
{ACAD_REACTORS
330
1A
102
}
330
1A
100
AcDbPlotSettings
  1

  2
none_device
  4

  6

 40
0.0
 41
0.0
 42
0.0
 43
0.0
 44
0.0
 45
0.0
 46
0.0
 47
0.0
 48
0.0
 49
0.0
140
0.0
141
0.0
142
1.0
143
1.0
 70
   688
 72
     0
 73
     0
 74
     5
  7

 75
    16
147
1.0
148
0.0
149
0.0
100
AcDbLayout
  1
Layout1
 70
     1
 71
     1
 10
0.0
 20
0.0
 11
420.0
 21
297.0
 12
0.0
 22
0.0
 32
0.0
 14
1.0000000000E+20
 24
1.0000000000E+20
 34
1.0000000000E+20
 15
-1.0000000000E+20
 25
-1.0000000000E+20
 35
-1.0000000000E+20
146
0.0
 13
0.0
 23
0.0
 33
0.0
 16
1.0
 26
0.0
 36
0.0
 17
0.0
 27
1.0
 37
0.0
 76
     0
330
1B
  0
LAYOUT
  5
26
102
{ACAD_REACTORS
330
1A
102
}
330
1A
100
AcDbPlotSettings
  1

  2
none_device
  4

  6

 40
0.0
 41
0.0
 42
0.0
 43
0.0
 44
0.0
 45
0.0
 46
0.0
 47
0.0
 48
0.0
 49
0.0
140
0.0
141
0.0
142
1.0
143
1.0
 70
   688
 72
     0
 73
     0
 74
     5
  7

 75
    16
147
1.0
148
0.0
149
0.0
100
AcDbLayout
  1
Layout2
 70
     1
 71
     2
 10
0.0
 20
0.0
 11
0.0
 21
0.0
 12
0.0
 22
0.0
 32
0.0
 14
0.0
 24
0.0
 34
0.0
 15
0.0
 25
0.0
 35
0.0
146
0.0
 13
0.0
 23
0.0
 33
0.0
 16
1.0
 26
0.0
 36
0.0
 17
0.0
 27
1.0
 37
0.0
 76
     0
330
23
  0
LAYOUT
  5
22
102
{ACAD_REACTORS
330
1A
102
}
330
1A
100
AcDbPlotSettings
  1

  2
none_device
  4
ANSI_A_(11.00_x_8.50_Inches)
  6

 40
6.35
 41
19.05
 42
6.35000508
 43
19.05000254
 44
279.4
 45
215.9
 46
189.3541723562
 47
91.9485821959
 48
0.0
 49
0.0
140
0.0
141
0.0
142
0.0266708469
143
1.0
 70
  1696
 72
     0
 73
     0
 74
     0
  7

 75
     0
147
0.0179189148
148
0.0
149
0.0
100
AcDbLayout
  1
Model
 70
     1
 71
     0
 10
0.0
 20
0.0
 11
420.0
 21
297.0
 12
0.0
 22
0.0
 32
0.0
 14
-225.0261450108
 24
-162.2566765425
 34
0.0
 15
59.6854051749
 25
153.2563645721
 35
0.0
146
0.0
 13
0.0
 23
0.0
 33
0.0
 16
1.0
 26
0.0
 36
0.0
 17
0.0
 27
1.0
 37
0.0
 76
     0
330
1F
331
29
  0
MLINESTYLE
  5
18
102
{ACAD_REACTORS
330
17
102
}
330
17
100
AcDbMlineStyle
  2
Standard
 70
     0
  3

 62
   256
 51
90.0
 52
90.0
 71
     2
 49
0.5
 62
   256
  6
BYLAYER
 49
-0.5
 62
   256
  6
BYLAYER
  0
ACDBPLACEHOLDER
  5
F
102
{ACAD_REACTORS
330
E
102
}
330
E
  0
ENDSEC
  0
EOF
